<svg id="visual" viewBox="0 0 1920 1080" width="1920" height="1080" xmlns="http://www.w3.org/2000/svg" xmlns:xlink="http://www.w3.org/1999/xlink" version="1.1"><rect x="0" y="0" width="1920" height="1080" fill="#001122"></rect><defs><linearGradient id="grad1_0" x1="43.8%" y1="0%" x2="100%" y2="100%"><stop offset="14.444444444444446%" stop-color="#cccccc" stop-opacity="1"></stop><stop offset="85.55555555555554%" stop-color="#cccccc" stop-opacity="1"></stop></linearGradient></defs><defs><linearGradient id="grad1_1" x1="43.8%" y1="0%" x2="100%" y2="100%"><stop offset="14.444444444444446%" stop-color="#cccccc" stop-opacity="1"></stop><stop offset="85.55555555555554%" stop-color="#616771" stop-opacity="1"></stop></linearGradient></defs><defs><linearGradient id="grad1_2" x1="43.8%" y1="0%" x2="100%" y2="100%"><stop offset="14.444444444444446%" stop-color="#001122" stop-opacity="1"></stop><stop offset="85.55555555555554%" stop-color="#616771" stop-opacity="1"></stop></linearGradient></defs><defs><linearGradient id="grad2_0" x1="0%" y1="0%" x2="56.3%" y2="100%"><stop offset="14.444444444444446%" stop-color="#cccccc" stop-opacity="1"></stop><stop offset="85.55555555555554%" stop-color="#cccccc" stop-opacity="1"></stop></linearGradient></defs><defs><linearGradient id="grad2_1" x1="0%" y1="0%" x2="56.3%" y2="100%"><stop offset="14.444444444444446%" stop-color="#616771" stop-opacity="1"></stop><stop offset="85.55555555555554%" stop-color="#cccccc" stop-opacity="1"></stop></linearGradient></defs><defs><linearGradient id="grad2_2" x1="0%" y1="0%" x2="56.3%" y2="100%"><stop offset="14.444444444444446%" stop-color="#616771" stop-opacity="1"></stop><stop offset="85.55555555555554%" stop-color="#001122" stop-opacity="1"></stop></linearGradient></defs><g transform="translate(1920, 0)"><path d="M0 702C-57.2 684.4 -114.3 666.7 -175 653C-235.6 639.2 -299.7 629.3 -343 594.1C-386.3 558.9 -409 498.3 -458.2 458.2C-507.4 418.2 -583.3 398.7 -607.9 351C-632.6 303.3 -606.2 227.5 -613.4 164.4C-620.5 101.2 -661.3 50.6 -702 0L0 0Z" fill="#303a48"></path><path d="M0 468C-38.1 456.2 -76.2 444.5 -116.6 435.3C-157.1 426.1 -199.8 419.6 -228.7 396.1C-257.6 372.6 -272.7 332.2 -305.5 305.5C-338.3 278.8 -388.8 265.8 -405.3 234C-421.8 202.2 -404.1 151.7 -408.9 109.6C-413.7 67.4 -440.8 33.7 -468 0L0 0Z" fill="#95989d"></path><path d="M0 234C-19.1 228.1 -38.1 222.2 -58.3 217.7C-78.5 213.1 -99.9 209.8 -114.3 198C-128.8 186.3 -136.3 166.1 -152.7 152.7C-169.1 139.4 -194.4 132.9 -202.6 117C-210.9 101.1 -202.1 75.8 -204.5 54.8C-206.8 33.7 -220.4 16.9 -234 0L0 0Z" fill="#cccccc"></path></g><g transform="translate(0, 1080)"><path d="M0 -702C55.3 -678.9 110.6 -655.7 172.9 -645.2C235.1 -634.7 304.3 -636.8 348 -602.8C391.7 -568.7 409.9 -498.4 454.7 -454.7C499.4 -411 570.6 -393.9 607.9 -351C645.3 -308.1 648.7 -239.3 658.8 -176.5C668.8 -113.7 685.4 -56.9 702 0L0 0Z" fill="#303a48"></path><path d="M0 -468C36.9 -452.6 73.8 -437.2 115.3 -430.2C156.8 -423.2 202.9 -424.6 232 -401.8C261.1 -379.1 273.3 -332.2 303.1 -303.1C332.9 -274 380.4 -262.6 405.3 -234C430.2 -205.4 432.5 -159.5 439.2 -117.7C445.9 -75.8 456.9 -37.9 468 0L0 0Z" fill="#95989d"></path><path d="M0 -234C18.4 -226.3 36.9 -218.6 57.6 -215.1C78.4 -211.6 101.4 -212.3 116 -200.9C130.6 -189.6 136.6 -166.1 151.6 -151.6C166.5 -137 190.2 -131.3 202.6 -117C215.1 -102.7 216.2 -79.8 219.6 -58.8C222.9 -37.9 228.5 -19 234 0L0 0Z" fill="#cccccc"></path></g></svg>