<svg id="visual" viewBox="0 0 1920 1080" width="1920" height="1080" xmlns="http://www.w3.org/2000/svg" xmlns:xlink="http://www.w3.org/1999/xlink" version="1.1"><rect x="0" y="0" width="1920" height="1080" fill="#001122"></rect><defs><linearGradient id="grad1_0" x1="43.8%" y1="0%" x2="100%" y2="100%"><stop offset="14.444444444444446%" stop-color="#cccccc" stop-opacity="1"></stop><stop offset="85.55555555555554%" stop-color="#cccccc" stop-opacity="1"></stop></linearGradient></defs><defs><linearGradient id="grad1_1" x1="43.8%" y1="0%" x2="100%" y2="100%"><stop offset="14.444444444444446%" stop-color="#cccccc" stop-opacity="1"></stop><stop offset="85.55555555555554%" stop-color="#95989d" stop-opacity="1"></stop></linearGradient></defs><defs><linearGradient id="grad1_2" x1="43.8%" y1="0%" x2="100%" y2="100%"><stop offset="14.444444444444446%" stop-color="#616771" stop-opacity="1"></stop><stop offset="85.55555555555554%" stop-color="#95989d" stop-opacity="1"></stop></linearGradient></defs><defs><linearGradient id="grad1_3" x1="43.8%" y1="0%" x2="100%" y2="100%"><stop offset="14.444444444444446%" stop-color="#616771" stop-opacity="1"></stop><stop offset="85.55555555555554%" stop-color="#303a48" stop-opacity="1"></stop></linearGradient></defs><defs><linearGradient id="grad1_4" x1="43.8%" y1="0%" x2="100%" y2="100%"><stop offset="14.444444444444446%" stop-color="#001122" stop-opacity="1"></stop><stop offset="85.55555555555554%" stop-color="#303a48" stop-opacity="1"></stop></linearGradient></defs><defs><linearGradient id="grad2_0" x1="0%" y1="0%" x2="56.3%" y2="100%"><stop offset="14.444444444444446%" stop-color="#cccccc" stop-opacity="1"></stop><stop offset="85.55555555555554%" stop-color="#cccccc" stop-opacity="1"></stop></linearGradient></defs><defs><linearGradient id="grad2_1" x1="0%" y1="0%" x2="56.3%" y2="100%"><stop offset="14.444444444444446%" stop-color="#95989d" stop-opacity="1"></stop><stop offset="85.55555555555554%" stop-color="#cccccc" stop-opacity="1"></stop></linearGradient></defs><defs><linearGradient id="grad2_2" x1="0%" y1="0%" x2="56.3%" y2="100%"><stop offset="14.444444444444446%" stop-color="#95989d" stop-opacity="1"></stop><stop offset="85.55555555555554%" stop-color="#616771" stop-opacity="1"></stop></linearGradient></defs><defs><linearGradient id="grad2_3" x1="0%" y1="0%" x2="56.3%" y2="100%"><stop offset="14.444444444444446%" stop-color="#303a48" stop-opacity="1"></stop><stop offset="85.55555555555554%" stop-color="#616771" stop-opacity="1"></stop></linearGradient></defs><defs><linearGradient id="grad2_4" x1="0%" y1="0%" x2="56.3%" y2="100%"><stop offset="14.444444444444446%" stop-color="#303a48" stop-opacity="1"></stop><stop offset="85.55555555555554%" stop-color="#001122" stop-opacity="1"></stop></linearGradient></defs><g transform="translate(1920, 0)"><path d="M0 702C-66.3 677.8 -132.7 653.7 -207.4 638.2C-282 622.7 -365.1 615.8 -412.6 567.9C-460.2 520 -472.3 431 -503.2 365.6C-534.1 300.2 -583.8 258.5 -620.1 201.5C-656.4 144.5 -679.2 72.2 -702 0L0 0Z" fill="#192534"></path><path d="M0 561.6C-53.1 542.3 -106.1 522.9 -165.9 510.5C-225.6 498.1 -292 492.7 -330.1 454.3C-368.2 416 -377.8 344.8 -402.6 292.5C-427.3 240.2 -467.1 206.8 -496.1 161.2C-525.1 115.6 -543.3 57.8 -561.6 0L0 0Z" fill="#48505c"></path><path d="M0 421.2C-39.8 406.7 -79.6 392.2 -124.4 382.9C-169.2 373.6 -219 369.5 -247.6 340.8C-276.1 312 -283.4 258.6 -301.9 219.4C-320.5 180.1 -350.3 155.1 -372.1 120.9C-393.8 86.7 -407.5 43.3 -421.2 0L0 0Z" fill="#7a7f87"></path><path d="M0 280.8C-26.5 271.1 -53.1 261.5 -82.9 255.3C-112.8 249.1 -146 246.3 -165.1 227.2C-184.1 208 -188.9 172.4 -201.3 146.2C-213.6 120.1 -233.5 103.4 -248 80.6C-262.5 57.8 -271.7 28.9 -280.8 0L0 0Z" fill="#b0b2b4"></path><path d="M0 140.4C-13.3 135.6 -26.5 130.7 -41.5 127.6C-56.4 124.5 -73 123.2 -82.5 113.6C-92 104 -94.5 86.2 -100.6 73.1C-106.8 60 -116.8 51.7 -124 40.3C-131.3 28.9 -135.8 14.4 -140.4 0L0 0Z" fill="#cccccc"></path></g><g transform="translate(0, 1080)"><path d="M0 -702C60.9 -656.8 121.8 -611.6 192.2 -591.6C262.6 -571.5 342.6 -576.7 393.2 -541.2C443.9 -505.7 465.1 -429.5 512.1 -372.1C559.1 -314.6 631.7 -275.8 667.6 -216.9C703.6 -158 702.8 -79 702 0L0 0Z" fill="#192534"></path><path d="M0 -561.6C48.7 -525.4 97.4 -489.3 153.8 -473.2C210.1 -457.2 274.1 -461.4 314.6 -433C355.1 -404.6 372.1 -343.6 409.7 -297.7C447.3 -251.7 505.4 -220.7 534.1 -173.5C562.9 -126.4 562.2 -63.2 561.6 0L0 0Z" fill="#48505c"></path><path d="M0 -421.2C36.5 -394.1 73.1 -366.9 115.3 -354.9C157.6 -342.9 205.6 -346 235.9 -324.7C266.3 -303.4 279.1 -257.7 307.3 -223.2C335.4 -188.8 379 -165.5 400.6 -130.2C422.1 -94.8 421.7 -47.4 421.2 0L0 0Z" fill="#7a7f87"></path><path d="M0 -280.8C24.4 -262.7 48.7 -244.6 76.9 -236.6C105.1 -228.6 137 -230.7 157.3 -216.5C177.5 -202.3 186.1 -171.8 204.8 -148.8C223.6 -125.8 252.7 -110.3 267.1 -86.8C281.4 -63.2 281.1 -31.6 280.8 0L0 0Z" fill="#b0b2b4"></path><path d="M0 -140.4C12.2 -131.4 24.4 -122.3 38.4 -118.3C52.5 -114.3 68.5 -115.3 78.6 -108.2C88.8 -101.1 93 -85.9 102.4 -74.4C111.8 -62.9 126.3 -55.2 133.5 -43.4C140.7 -31.6 140.6 -15.8 140.4 0L0 0Z" fill="#cccccc"></path></g></svg>