<svg xmlns="http://www.w3.org/2000/svg" version="1.1" xmlns:xlink="http://www.w3.org/1999/xlink" xmlns:svgjs="http://svgjs.dev/svgjs" width="1500" height="428" viewBox="0 0 1500 428"><g transform="matrix(1,0,0,1,-0.9090909090909918,0.8314006118240229)"><svg viewBox="0 0 396 113" data-background-color="#001f3f" preserveAspectRatio="xMidYMid meet" height="428" width="1500" xmlns="http://www.w3.org/2000/svg" xmlns:xlink="http://www.w3.org/1999/xlink"><g id="tight-bounds" transform="matrix(1,0,0,1,0.2400000000000091,-0.21950530171989158)"><svg viewBox="0 0 395.52 113.43901060343977" height="113.43901060343977" width="395.52"><g><svg viewBox="0 0 542.0194183306471 155.45647892212918" height="113.43901060343977" width="395.52"><g transform="matrix(1,0,0,1,146.49941833064713,21.48494028518573)"><svg viewBox="0 0 395.52 112.48659835175772" height="112.48659835175772" width="395.52"><g id="textblocktransform"><svg viewBox="0 0 395.52 112.48659835175772" height="112.48659835175772" width="395.52" id="textblock"><g><svg viewBox="0 0 395.52 69.66795986622073" height="69.66795986622073" width="395.52"><g transform="matrix(1,0,0,1,0,0)"><svg width="395.52" viewBox="4.5 -29 224.23 39.5" height="69.66795986622073" data-palette-color="url(#b25896f3-1ed6-4e46-a219-bd5d4d64733f)"></svg></g></svg></g><g transform="matrix(1,0,0,1,0,86.11489315959865)"><svg viewBox="0 0 395.52 26.371705192159066" height="26.371705192159066" width="395.52"><g transform="matrix(1,0,0,1,0,0)"><svg width="395.52" viewBox="4.6 -37.5 711.5799999999999 47.45" height="26.371705192159066" data-palette-color="#bcbcbc"><path d="M4.6 0L4.6-35 29.6-35 29.6-29.95 10.5-29.95 10.5-20.1 27.6-20.1 27.6-15.1 10.5-15.1 10.5-5.05 30.2-5.05 30.2 0 4.6 0ZM56.4 0L56.4-15Q56.4-18.15 54.75-19.93 53.1-21.7 50.15-21.7L50.15-21.7Q46.7-21.6 44.72-19.15 42.75-16.7 42.75-13.1L42.75-13.1 41.15-13.1Q41.15-18 42.52-21 43.9-24 46.42-25.38 48.95-26.75 52.4-26.75L52.4-26.75Q55.45-26.75 57.62-25.5 59.8-24.25 60.97-21.98 62.15-19.7 62.15-16.5L62.15-16.5 62.15 0 56.4 0ZM75.75 0L75.75-15Q75.75-18.15 74.07-19.93 72.4-21.7 69.45-21.7L69.45-21.7Q66.05-21.6 64.1-19.15 62.15-16.7 62.15-13.1L62.15-13.1 60.5-13.1Q60.5-18 61.87-21 63.25-24 65.77-25.38 68.3-26.75 71.75-26.75L71.75-26.75Q74.8-26.75 76.97-25.5 79.15-24.25 80.32-21.98 81.5-19.7 81.5-16.5L81.5-16.5 81.5 0 75.75 0ZM37.05 0L37.05-26.55 42.75-26.55 42.75 0 37.05 0ZM104.5-26.75L104.5-26.75Q108.3-26.75 111.15-25.05 114-23.35 115.6-20.3 117.2-17.25 117.2-13.2L117.2-13.2Q117.2-9.25 115.62-6.23 114.05-3.2 111.22-1.5 108.4 0.2 104.6 0.2L104.6 0.2Q100.95 0.2 98.37-1.4 95.8-3 94.45-6.03 93.1-9.05 93.1-13.2L93.1-13.2Q93.1-17.5 94.45-20.53 95.8-23.55 98.37-25.15 100.95-26.75 104.5-26.75ZM103.3-22.2L103.3-22.2Q100.95-22.2 99.1-21.05 97.25-19.9 96.22-17.93 95.2-15.95 95.2-13.35L95.2-13.35Q95.2-10.75 96.22-8.72 97.25-6.7 99.1-5.58 100.95-4.45 103.3-4.45L103.3-4.45Q105.7-4.45 107.52-5.6 109.35-6.75 110.37-8.75 111.4-10.75 111.4-13.35L111.4-13.35Q111.4-15.9 110.37-17.9 109.35-19.9 107.52-21.05 105.7-22.2 103.3-22.2ZM89.45 9.7L89.45-26.55 95.2-26.55 95.2 9.7 89.45 9.7ZM134.59-26.75L134.59-26.75Q138.69-26.75 141.82-25.05 144.94-23.35 146.69-20.33 148.44-17.3 148.44-13.3L148.44-13.3Q148.44-9.3 146.69-6.25 144.94-3.2 141.82-1.5 138.69 0.2 134.59 0.2L134.59 0.2Q130.49 0.2 127.34-1.5 124.19-3.2 122.44-6.25 120.69-9.3 120.69-13.3L120.69-13.3Q120.69-17.3 122.44-20.33 124.19-23.35 127.34-25.05 130.49-26.75 134.59-26.75ZM134.59-22.1L134.59-22.1Q132.19-22.1 130.34-20.98 128.49-19.85 127.47-17.85 126.44-15.85 126.44-13.25L126.44-13.25Q126.44-10.6 127.47-8.6 128.49-6.6 130.34-5.48 132.19-4.35 134.59-4.35L134.59-4.35Q136.99-4.35 138.82-5.48 140.64-6.6 141.67-8.6 142.69-10.6 142.69-13.25L142.69-13.25Q142.69-15.85 141.67-17.85 140.64-19.85 138.82-20.98 136.99-22.1 134.59-22.1ZM160.04 0L150.24-26.55 156.14-26.55 163.04-5.3 169.74-26.55 175.69-26.55 182.44-5.3 189.24-26.55 195.09-26.55 185.39 0 179.44 0 172.69-20.1 165.94 0 160.04 0ZM201.24-15.2L217.49-15.2Q217.39-17.45 216.46-19.03 215.54-20.6 213.89-21.48 212.24-22.35 210.09-22.35L210.09-22.35Q207.69-22.35 205.91-21.25 204.14-20.15 203.14-18.18 202.14-16.2 202.14-13.55L202.14-13.55Q202.14-10.7 203.21-8.6 204.29-6.5 206.21-5.35 208.14-4.2 210.64-4.2L210.64-4.2Q215.09-4.2 218.14-7.35L218.14-7.35 221.19-4.3Q219.24-2.15 216.44-0.98 213.64 0.2 210.19 0.2L210.19 0.2Q206.09 0.2 203.04-1.5 199.99-3.2 198.29-6.23 196.59-9.25 196.59-13.25L196.59-13.25Q196.59-17.25 198.29-20.28 199.99-23.3 203.04-25 206.09-26.7 210.04-26.75L210.04-26.75Q214.74-26.75 217.59-24.83 220.44-22.9 221.64-19.4 222.84-15.9 222.49-11.1L222.49-11.1 201.24-11.1 201.24-15.2ZM243.44-26.75L243.44-21.55Q240.59-21.7 238.51-20.58 236.44-19.45 235.31-17.45 234.19-15.45 234.19-12.85L234.19-12.85 232.59-13.05Q232.59-17.5 233.89-20.55 235.19-23.6 237.64-25.18 240.09-26.75 243.44-26.75L243.44-26.75ZM228.49 0L228.49-26.55 234.24-26.55 234.24 0 228.49 0ZM248.18 0L248.18-26.55 253.88-26.55 253.88 0 248.18 0ZM251.03-37.5L251.03-37.5Q252.48-37.5 253.43-36.55 254.38-35.6 254.38-34.15L254.38-34.15Q254.38-32.75 253.43-31.78 252.48-30.8 251.03-30.8L251.03-30.8Q249.63-30.8 248.66-31.78 247.68-32.75 247.68-34.15L247.68-34.15Q247.68-35.6 248.66-36.55 249.63-37.5 251.03-37.5ZM282.08 0L282.08-15Q282.08-18.1 280.38-19.88 278.68-21.65 275.68-21.65L275.68-21.65Q272.13-21.6 270.11-19.15 268.08-16.7 268.08-13.05L268.08-13.05 266.48-13.05Q266.48-18 267.88-21 269.28-24 271.86-25.38 274.43-26.75 277.93-26.75L277.93-26.75Q281.03-26.75 283.26-25.5 285.48-24.25 286.66-21.98 287.83-19.7 287.83-16.5L287.83-16.5 287.83 0 282.08 0ZM262.38 0L262.38-26.55 268.13-26.55 268.13 0 262.38 0ZM319.53-26.55L319.53-2.65Q319.53 1.2 317.83 4 316.13 6.8 313.03 8.33 309.93 9.85 305.73 9.85L305.73 9.85Q302.63 9.85 299.88 8.93 297.13 8 294.68 6.35L294.68 6.35 297.13 2.4Q299.03 3.8 301.03 4.58 303.03 5.35 305.48 5.35L305.48 5.35Q308.03 5.35 309.9 4.38 311.78 3.4 312.8 1.65 313.83-0.1 313.83-2.5L313.83-2.5 313.83-26.55 319.53-26.55ZM304.83-26.75L304.83-26.75Q308.33-26.8 310.8-25.28 313.28-23.75 314.58-20.9 315.88-18.05 315.83-14.05L315.83-14.05Q315.88-10.05 314.6-7.18 313.33-4.3 310.9-2.78 308.48-1.25 305.03-1.25L305.03-1.25Q301.43-1.25 298.73-2.88 296.03-4.5 294.53-7.4 293.03-10.3 293.03-14.1L293.03-14.1Q293.03-17.85 294.5-20.68 295.98-23.5 298.65-25.13 301.33-26.75 304.83-26.75ZM306.18-22.35L306.18-22.35Q303.93-22.35 302.18-21.28 300.43-20.2 299.45-18.3 298.48-16.4 298.43-13.95L298.43-13.95Q298.48-11.5 299.45-9.6 300.43-7.7 302.15-6.63 303.88-5.55 306.18-5.55L306.18-5.55Q308.43-5.55 310.15-6.63 311.88-7.7 312.85-9.6 313.83-11.5 313.83-13.95L313.83-13.95Q313.83-16.45 312.85-18.32 311.88-20.2 310.15-21.28 308.43-22.35 306.18-22.35ZM341.37-35L355.72-35Q359.67-35 362.97-33.7 366.27-32.4 368.7-30.05 371.12-27.7 372.47-24.5 373.82-21.3 373.82-17.5L373.82-17.5Q373.82-13.7 372.47-10.53 371.12-7.35 368.67-4.98 366.22-2.6 362.87-1.3 359.52 0 355.57 0L355.57 0 341.37 0 341.37-35ZM347.27-5.05L355.87-5.05Q358.42-5.05 360.6-5.95 362.77-6.85 364.4-8.53 366.02-10.2 366.95-12.48 367.87-14.75 367.87-17.45L367.87-17.45Q367.87-20.2 366.92-22.48 365.97-24.75 364.32-26.45 362.67-28.15 360.45-29.05 358.22-29.95 355.62-29.95L355.62-29.95 347.27-29.95 347.27-5.05ZM379.77 0L379.77-26.55 385.47-26.55 385.47 0 379.77 0ZM382.62-37.5L382.62-37.5Q384.07-37.5 385.02-36.55 385.97-35.6 385.97-34.15L385.97-34.15Q385.97-32.75 385.02-31.78 384.07-30.8 382.62-30.8L382.62-30.8Q381.22-30.8 380.25-31.78 379.27-32.75 379.27-34.15L379.27-34.15Q379.27-35.6 380.25-36.55 381.22-37.5 382.62-37.5ZM417.97-26.55L417.97-2.65Q417.97 1.2 416.27 4 414.57 6.8 411.47 8.33 408.37 9.85 404.17 9.85L404.17 9.85Q401.07 9.85 398.32 8.93 395.57 8 393.12 6.35L393.12 6.35 395.57 2.4Q397.47 3.8 399.47 4.58 401.47 5.35 403.92 5.35L403.92 5.35Q406.47 5.35 408.34 4.38 410.22 3.4 411.24 1.65 412.27-0.1 412.27-2.5L412.27-2.5 412.27-26.55 417.97-26.55ZM403.27-26.75L403.27-26.75Q406.77-26.8 409.24-25.28 411.72-23.75 413.02-20.9 414.32-18.05 414.27-14.05L414.27-14.05Q414.32-10.05 413.04-7.18 411.77-4.3 409.34-2.78 406.92-1.25 403.47-1.25L403.47-1.25Q399.87-1.25 397.17-2.88 394.47-4.5 392.97-7.4 391.47-10.3 391.47-14.1L391.47-14.1Q391.47-17.85 392.94-20.68 394.42-23.5 397.09-25.13 399.77-26.75 403.27-26.75ZM404.62-22.35L404.62-22.35Q402.37-22.35 400.62-21.28 398.87-20.2 397.89-18.3 396.92-16.4 396.87-13.95L396.87-13.95Q396.92-11.5 397.89-9.6 398.87-7.7 400.59-6.63 402.32-5.55 404.62-5.55L404.62-5.55Q406.87-5.55 408.59-6.63 410.32-7.7 411.29-9.6 412.27-11.5 412.27-13.95L412.27-13.95Q412.27-16.45 411.29-18.32 410.32-20.2 408.59-21.28 406.87-22.35 404.62-22.35ZM425.97 0L425.97-26.55 431.67-26.55 431.67 0 425.97 0ZM428.82-37.5L428.82-37.5Q430.27-37.5 431.22-36.55 432.17-35.6 432.17-34.15L432.17-34.15Q432.17-32.75 431.22-31.78 430.27-30.8 428.82-30.8L428.82-30.8Q427.42-30.8 426.44-31.78 425.47-32.75 425.47-34.15L425.47-34.15Q425.47-35.6 426.44-36.55 427.42-37.5 428.82-37.5ZM446.91-32.85L446.91-8.4Q446.91-6.25 447.66-5.48 448.41-4.7 449.76-4.7L449.76-4.7Q450.66-4.7 451.64-5 452.61-5.3 453.76-5.9L453.76-5.9 455.21-1.75Q453.66-0.8 452.01-0.28 450.36 0.25 448.66 0.25L448.66 0.25Q446.66 0.25 444.96-0.53 443.26-1.3 442.24-3 441.21-4.7 441.21-7.4L441.21-7.4 441.21-32.85 446.91-32.85ZM437.46-21.5L437.46-25.6 454.76-25.6 454.76-21.5 437.46-21.5ZM477.16-11.85L469.21-11.85Q466.41-11.85 465.06-11 463.71-10.15 463.71-8.2L463.71-8.2Q463.71-6.35 465.09-5.25 466.46-4.15 468.86-4.15L468.86-4.15Q471.01-4.15 472.71-4.9 474.41-5.65 475.41-6.93 476.41-8.2 476.46-9.8L476.46-9.8 477.56-4.95Q476.31-2.35 473.76-1.05 471.21 0.25 467.66 0.25L467.66 0.25Q464.81 0.25 462.71-0.85 460.61-1.95 459.46-3.83 458.31-5.7 458.31-8L458.31-8Q458.31-11.6 460.94-13.75 463.56-15.9 468.36-15.95L468.36-15.95 477.16-15.95 477.16-11.85ZM476.46 0L476.41-16.85Q476.41-19.45 474.81-20.9 473.21-22.35 470.06-22.35L470.06-22.35Q468.16-22.35 466.19-21.65 464.21-20.95 462.21-19.6L462.21-19.6 459.86-23.3Q461.71-24.45 463.36-25.2 465.01-25.95 466.89-26.35 468.76-26.75 471.31-26.75L471.31-26.75Q476.46-26.75 479.24-24.28 482.01-21.8 482.06-17.45L482.06-17.45 482.11 0 476.46 0ZM490.06 0L490.06-37.1 495.81-37.1 495.81 0 490.06 0ZM542.15-31.85L539.7-26.9Q537.8-28.1 535.95-28.8 534.1-29.5 532.45-29.8 530.8-30.1 529.45-30.1L529.45-30.1Q526.85-30.1 525.3-29.1 523.75-28.1 523.75-26.2L523.75-26.2Q523.75-24.5 524.78-23.43 525.8-22.35 527.48-21.68 529.15-21 531.18-20.4 533.2-19.8 535.2-19.07 537.2-18.35 538.9-17.2 540.6-16.05 541.6-14.28 542.6-12.5 542.6-9.8L542.6-9.8Q542.6-6.7 540.9-4.42 539.2-2.15 536.23-0.9 533.25 0.35 529.4 0.35L529.4 0.35Q526.65 0.35 524.05-0.38 521.45-1.1 519.18-2.35 516.9-3.6 515.1-5.25L515.1-5.25 517.65-10.1Q519.45-8.45 521.48-7.3 523.5-6.15 525.58-5.55 527.65-4.95 529.5-4.95L529.5-4.95Q532.6-4.95 534.33-6.15 536.05-7.35 536.05-9.5L536.05-9.5Q536.05-11.25 535.03-12.33 534-13.4 532.33-14.1 530.65-14.8 528.63-15.35 526.6-15.9 524.58-16.63 522.55-17.35 520.88-18.45 519.2-19.55 518.18-21.3 517.15-23.05 517.15-25.75L517.15-25.75Q517.15-28.7 518.75-30.88 520.35-33.05 523.23-34.25 526.1-35.45 529.9-35.45L529.9-35.45Q533.3-35.45 536.5-34.45 539.7-33.45 542.15-31.85L542.15-31.85ZM551.3-15.2L567.55-15.2Q567.45-17.45 566.52-19.03 565.6-20.6 563.95-21.48 562.3-22.35 560.15-22.35L560.15-22.35Q557.75-22.35 555.98-21.25 554.2-20.15 553.2-18.18 552.2-16.2 552.2-13.55L552.2-13.55Q552.2-10.7 553.27-8.6 554.35-6.5 556.27-5.35 558.2-4.2 560.7-4.2L560.7-4.2Q565.15-4.2 568.2-7.35L568.2-7.35 571.25-4.3Q569.3-2.15 566.5-0.98 563.7 0.2 560.25 0.2L560.25 0.2Q556.15 0.2 553.1-1.5 550.05-3.2 548.35-6.23 546.65-9.25 546.65-13.25L546.65-13.25Q546.65-17.25 548.35-20.28 550.05-23.3 553.1-25 556.15-26.7 560.1-26.75L560.1-26.75Q564.8-26.75 567.65-24.83 570.5-22.9 571.7-19.4 572.9-15.9 572.55-11.1L572.55-11.1 551.3-11.1 551.3-15.2ZM600.45-22.65L597.3-18.95Q595.9-20.4 594-21.2 592.1-22 589.7-22L589.7-22Q587.4-22 585.6-20.9 583.8-19.8 582.8-17.82 581.8-15.85 581.8-13.25L581.8-13.25Q581.8-10.65 582.8-8.68 583.8-6.7 585.6-5.58 587.4-4.45 589.7-4.45L589.7-4.45Q592.2-4.45 594.2-5.28 596.2-6.1 597.55-7.7L597.55-7.7 600.75-4.55Q598.95-2.3 596.07-1.05 593.2 0.2 589.45 0.2L589.45 0.2Q585.5 0.2 582.47-1.5 579.45-3.2 577.75-6.23 576.05-9.25 576.05-13.25L576.05-13.25Q576.05-17.25 577.75-20.28 579.45-23.3 582.47-25.03 585.5-26.75 589.45-26.75L589.45-26.75Q593.05-26.75 595.82-25.68 598.6-24.6 600.45-22.65L600.45-22.65ZM611.64-26.55L611.64-11.55Q611.64-8.45 613.29-6.68 614.94-4.9 617.84-4.9L617.84-4.9Q621.29-5 623.22-7.45 625.14-9.9 625.14-13.5L625.14-13.5 626.69-13.5Q626.69-8.6 625.34-5.6 623.99-2.6 621.52-1.23 619.04 0.15 615.64 0.2L615.64 0.2Q612.59 0.2 610.42-1.05 608.24-2.3 607.07-4.6 605.89-6.9 605.89-10.05L605.89-10.05 605.89-26.55 611.64-26.55ZM625.14 0L625.14-26.55 630.89-26.55 630.89 0 625.14 0ZM654.34-26.75L654.34-21.55Q651.49-21.7 649.42-20.58 647.34-19.45 646.22-17.45 645.09-15.45 645.09-12.85L645.09-12.85 643.49-13.05Q643.49-17.5 644.79-20.55 646.09-23.6 648.54-25.18 650.99-26.75 654.34-26.75L654.34-26.75ZM639.39 0L639.39-26.55 645.14-26.55 645.14 0 639.39 0ZM659.09 0L659.09-26.55 664.79-26.55 664.79 0 659.09 0ZM661.94-37.5L661.94-37.5Q663.39-37.5 664.34-36.55 665.29-35.6 665.29-34.15L665.29-34.15Q665.29-32.75 664.34-31.78 663.39-30.8 661.94-30.8L661.94-30.8Q660.54-30.8 659.56-31.78 658.59-32.75 658.59-34.15L658.59-34.15Q658.59-35.6 659.56-36.55 660.54-37.5 661.94-37.5ZM680.04-32.85L680.04-8.4Q680.04-6.25 680.79-5.48 681.54-4.7 682.89-4.7L682.89-4.7Q683.79-4.7 684.76-5 685.74-5.3 686.89-5.9L686.89-5.9 688.34-1.75Q686.79-0.8 685.14-0.28 683.49 0.25 681.79 0.25L681.79 0.25Q679.79 0.25 678.09-0.53 676.39-1.3 675.36-3 674.34-4.7 674.34-7.4L674.34-7.4 674.34-32.85 680.04-32.85ZM670.59-21.5L670.59-25.6 687.89-25.6 687.89-21.5 670.59-21.5ZM716.18-26.55L704.08 3.75Q702.83 6.8 700.63 8.38 698.43 9.95 695.43 9.95L695.43 9.95Q693.63 9.95 692.16 9.4 690.68 8.85 689.28 7.75L689.28 7.75 691.73 3.5Q693.53 4.8 695.18 4.8L695.18 4.8Q696.48 4.8 697.53 4.05 698.58 3.3 699.23 1.75L699.23 1.75 700.13-0.35 689.13-26.55 695.08-26.55 703.03-6.05 710.43-26.55 716.18-26.55Z" opacity="1" transform="matrix(1,0,0,1,0,0)" fill="#bcbcbc" class="slogan-text-1" data-fill-palette-color="secondary" id="text-1"></path></svg></g></svg></g></svg></g></svg></g><g><svg viewBox="0 0 130.0524850372692 155.45647892212918" height="155.45647892212918" width="130.0524850372692"><g><svg xmlns="http://www.w3.org/2000/svg" xmlns:xlink="http://www.w3.org/1999/xlink" version="1.1" x="0" y="0" viewBox="16.609829953919423 11.353 66.78443125211547 79.82986658267758" enable-background="new 0 0 100 100" xml:space="preserve" height="155.45647892212918" width="130.0524850372692" class="icon-icon-0" data-fill-palette-color="accent" id="icon-0"></svg></g></svg></g></svg></g><defs></defs><mask id="5bda7cd0-9985-40c1-a4b3-e77e451c0ed5"><g id="SvgjsG1432"><svg viewBox="0 0 395.52 113.43901060343977" height="113.43901060343977" width="395.52"><g><svg viewBox="0 0 542.0194183306471 155.45647892212918" height="113.43901060343977" width="395.52"><g transform="matrix(1,0,0,1,146.49941833064713,21.48494028518573)"><svg viewBox="0 0 395.52 112.48659835175772" height="112.48659835175772" width="395.52"><g id="SvgjsG1431"><svg viewBox="0 0 395.52 112.48659835175772" height="112.48659835175772" width="395.52" id="SvgjsSvg1430"><g><svg viewBox="0 0 395.52 69.66795986622073" height="69.66795986622073" width="395.52"><g transform="matrix(1,0,0,1,0,0)"><svg width="395.52" viewBox="4.5 -29 224.23 39.5" height="69.66795986622073" data-palette-color="url(#b25896f3-1ed6-4e46-a219-bd5d4d64733f)"><path d="M21.8-24.5L26.75-24.5 15.65-14.15 15.65-13.65 22-13.65Q23.45-13.65 24.48-12.63 25.5-11.6 25.5-10.15L25.5-10.15 25.5 0 21.5 0 21.5-10.5 8.5-10.5 8.5 0 4.5 0 4.5-24.5 8.5-24.5 8.5-11.15 21.8-24.5ZM50-3L50 0 36 0Q34.55 0 33.52-1.03 32.5-2.05 32.5-3.5L32.5-3.5 32.5-14Q32.5-15.45 33.52-16.48 34.55-17.5 36-17.5L36-17.5 46.5-17.5Q47.95-17.5 48.97-16.48 50-15.45 50-14L50-14 50-10.5 46.5-7 36.5-7 39.5-10 46.5-10 46.5-14.5 36-14.5 36-3 50-3ZM73-17.5L73 7Q73 8.45 71.97 9.47 70.95 10.5 69.5 10.5L69.5 10.5 55 10.5 58 7.5 69.5 7.5 69.5-2.5 67 0 59 0Q57.55 0 56.52-1.03 55.5-2.05 55.5-3.5L55.5-3.5 55.5-17.5 59-17.5 59-3 69.5-3 69.5-17.5 73-17.5ZM101.99-14L101.99 0 97.99 0 97.99-3 94.99 0 84.49 0Q83.09 0 82.04-1.05 80.99-2.1 80.99-3.5L80.99-3.5 80.99-21Q80.99-22.4 82.04-23.45 83.09-24.5 84.49-24.5L84.49-24.5 101.99-24.5 101.99-21 84.99-21 84.99-3.5 97.99-3.5 97.99-10.5 91.49-10.5 94.99-14 101.99-14ZM126.24-17.5L126.24 0 122.74 0 122.74-2.5 120.24 0 112.24 0Q110.79 0 109.77-1.03 108.74-2.05 108.74-3.5L108.74-3.5 108.74-17.5 112.24-17.5 112.24-3 122.74-3 122.74-17.5 126.24-17.5ZM149.99-14L149.99 0 146.49 0 146.49-2.55 143.49 0 135.99 0Q134.54 0 133.51-1.03 132.49-2.05 132.49-3.5L132.49-3.5 132.49-7Q132.49-8.45 133.51-9.47 134.54-10.5 135.99-10.5L135.99-10.5 145.99-10.5 142.99-7.55 135.99-7.55 135.99-3 146.49-3 146.49-14.5 132.49-14.5 135.49-17.5 146.49-17.5Q147.94-17.5 148.96-16.48 149.99-15.45 149.99-14L149.99-14ZM170.99-14L170.99-10.5 167.49-10.5 167.49-14.5 160.49-14.5 160.49 0 156.99 0 156.99-17.5 160.49-17.5 160.49-15 162.99-17.5 167.49-17.5Q168.94-17.5 169.96-16.48 170.99-15.45 170.99-14L170.99-14ZM193.98-29L193.98 0 190.48 0 190.48-2.5 187.98 0 179.98 0Q178.53 0 177.51-1.03 176.48-2.05 176.48-3.5L176.48-3.5 176.48-14Q176.48-15.45 177.51-16.48 178.53-17.5 179.98-17.5L179.98-17.5 190.48-17.5 190.48-25.5 193.98-29ZM179.98-3L190.48-3 190.48-17 187.98-14.5 179.98-14.5 179.98-3ZM204.98-24.5L204.98-20.5 201.48-20.5 201.48-24.5 204.98-24.5ZM204.98-18.5L204.98 0 201.48 0 201.48-15 204.98-18.5ZM228.73-14L228.73 0 225.23 0 225.23-2.55 222.23 0 214.73 0Q213.28 0 212.25-1.03 211.23-2.05 211.23-3.5L211.23-3.5 211.23-7Q211.23-8.45 212.25-9.47 213.28-10.5 214.73-10.5L214.73-10.5 224.73-10.5 221.73-7.55 214.73-7.55 214.73-3 225.23-3 225.23-14.5 211.23-14.5 214.23-17.5 225.23-17.5Q226.68-17.5 227.7-16.48 228.73-15.45 228.73-14L228.73-14Z" opacity="1" transform="matrix(1,0,0,1,0,0)" fill="white" class="wordmark-text-0" id="SvgjsPath1429"></path></svg></g></svg></g><g transform="matrix(1,0,0,1,0,86.11489315959865)"><svg viewBox="0 0 395.52 26.371705192159066" height="26.371705192159066" width="395.52"><g transform="matrix(1,0,0,1,0,0)"><svg width="395.52" viewBox="4.6 -37.5 711.5799999999999 47.45" height="26.371705192159066" data-palette-color="#bcbcbc"><path d="M4.6 0L4.6-35 29.6-35 29.6-29.95 10.5-29.95 10.5-20.1 27.6-20.1 27.6-15.1 10.5-15.1 10.5-5.05 30.2-5.05 30.2 0 4.6 0ZM56.4 0L56.4-15Q56.4-18.15 54.75-19.93 53.1-21.7 50.15-21.7L50.15-21.7Q46.7-21.6 44.72-19.15 42.75-16.7 42.75-13.1L42.75-13.1 41.15-13.1Q41.15-18 42.52-21 43.9-24 46.42-25.38 48.95-26.75 52.4-26.75L52.4-26.75Q55.45-26.75 57.62-25.5 59.8-24.25 60.97-21.98 62.15-19.7 62.15-16.5L62.15-16.5 62.15 0 56.4 0ZM75.75 0L75.75-15Q75.75-18.15 74.07-19.93 72.4-21.7 69.45-21.7L69.45-21.7Q66.05-21.6 64.1-19.15 62.15-16.7 62.15-13.1L62.15-13.1 60.5-13.1Q60.5-18 61.87-21 63.25-24 65.77-25.38 68.3-26.75 71.75-26.75L71.75-26.75Q74.8-26.75 76.97-25.5 79.15-24.25 80.32-21.98 81.5-19.7 81.5-16.5L81.5-16.5 81.5 0 75.75 0ZM37.05 0L37.05-26.55 42.75-26.55 42.75 0 37.05 0ZM104.5-26.75L104.5-26.75Q108.3-26.75 111.15-25.05 114-23.35 115.6-20.3 117.2-17.25 117.2-13.2L117.2-13.2Q117.2-9.25 115.62-6.23 114.05-3.2 111.22-1.5 108.4 0.2 104.6 0.2L104.6 0.2Q100.95 0.2 98.37-1.4 95.8-3 94.45-6.03 93.1-9.05 93.1-13.2L93.1-13.2Q93.1-17.5 94.45-20.53 95.8-23.55 98.37-25.15 100.95-26.75 104.5-26.75ZM103.3-22.2L103.3-22.2Q100.95-22.2 99.1-21.05 97.25-19.9 96.22-17.93 95.2-15.95 95.2-13.35L95.2-13.35Q95.2-10.75 96.22-8.72 97.25-6.7 99.1-5.58 100.95-4.45 103.3-4.45L103.3-4.45Q105.7-4.45 107.52-5.6 109.35-6.75 110.37-8.75 111.4-10.75 111.4-13.35L111.4-13.35Q111.4-15.9 110.37-17.9 109.35-19.9 107.52-21.05 105.7-22.2 103.3-22.2ZM89.45 9.7L89.45-26.55 95.2-26.55 95.2 9.7 89.45 9.7ZM134.59-26.75L134.59-26.75Q138.69-26.75 141.82-25.05 144.94-23.35 146.69-20.33 148.44-17.3 148.44-13.3L148.44-13.3Q148.44-9.3 146.69-6.25 144.94-3.2 141.82-1.5 138.69 0.2 134.59 0.2L134.59 0.2Q130.49 0.2 127.34-1.5 124.19-3.2 122.44-6.25 120.69-9.3 120.69-13.3L120.69-13.3Q120.69-17.3 122.44-20.33 124.19-23.35 127.34-25.05 130.49-26.75 134.59-26.75ZM134.59-22.1L134.59-22.1Q132.19-22.1 130.34-20.98 128.49-19.85 127.47-17.85 126.44-15.85 126.44-13.25L126.44-13.25Q126.44-10.6 127.47-8.6 128.49-6.6 130.34-5.48 132.19-4.35 134.59-4.35L134.59-4.35Q136.99-4.35 138.82-5.48 140.64-6.6 141.67-8.6 142.69-10.6 142.69-13.25L142.69-13.25Q142.69-15.85 141.67-17.85 140.64-19.85 138.82-20.98 136.99-22.1 134.59-22.1ZM160.04 0L150.24-26.55 156.14-26.55 163.04-5.3 169.74-26.55 175.69-26.55 182.44-5.3 189.24-26.55 195.09-26.55 185.39 0 179.44 0 172.69-20.1 165.94 0 160.04 0ZM201.24-15.2L217.49-15.2Q217.39-17.45 216.46-19.03 215.54-20.6 213.89-21.48 212.24-22.35 210.09-22.35L210.09-22.35Q207.69-22.35 205.91-21.25 204.14-20.15 203.14-18.18 202.14-16.2 202.14-13.55L202.14-13.55Q202.14-10.7 203.21-8.6 204.29-6.5 206.21-5.35 208.14-4.2 210.64-4.2L210.64-4.2Q215.09-4.2 218.14-7.35L218.14-7.35 221.19-4.3Q219.24-2.15 216.44-0.98 213.64 0.2 210.19 0.2L210.19 0.2Q206.09 0.2 203.04-1.5 199.99-3.2 198.29-6.23 196.59-9.25 196.59-13.25L196.59-13.25Q196.59-17.25 198.29-20.28 199.99-23.3 203.04-25 206.09-26.7 210.04-26.75L210.04-26.75Q214.74-26.75 217.59-24.83 220.44-22.9 221.64-19.4 222.84-15.9 222.49-11.1L222.49-11.1 201.24-11.1 201.24-15.2ZM243.44-26.75L243.44-21.55Q240.59-21.7 238.51-20.58 236.44-19.45 235.31-17.45 234.19-15.45 234.19-12.85L234.19-12.85 232.59-13.05Q232.59-17.5 233.89-20.55 235.19-23.6 237.64-25.18 240.09-26.75 243.44-26.75L243.44-26.75ZM228.49 0L228.49-26.55 234.24-26.55 234.24 0 228.49 0ZM248.18 0L248.18-26.55 253.88-26.55 253.88 0 248.18 0ZM251.03-37.5L251.03-37.5Q252.48-37.5 253.43-36.55 254.38-35.6 254.38-34.15L254.38-34.15Q254.38-32.75 253.43-31.78 252.48-30.8 251.03-30.8L251.03-30.8Q249.63-30.8 248.66-31.78 247.68-32.75 247.68-34.15L247.68-34.15Q247.68-35.6 248.66-36.55 249.63-37.5 251.03-37.5ZM282.08 0L282.08-15Q282.08-18.1 280.38-19.88 278.68-21.65 275.68-21.65L275.68-21.65Q272.13-21.6 270.11-19.15 268.08-16.7 268.08-13.05L268.08-13.05 266.48-13.05Q266.48-18 267.88-21 269.28-24 271.86-25.38 274.43-26.75 277.93-26.75L277.93-26.75Q281.03-26.75 283.26-25.5 285.48-24.25 286.66-21.98 287.83-19.7 287.83-16.5L287.83-16.5 287.83 0 282.08 0ZM262.38 0L262.38-26.55 268.13-26.55 268.13 0 262.38 0ZM319.53-26.55L319.53-2.65Q319.53 1.2 317.83 4 316.13 6.8 313.03 8.33 309.93 9.85 305.73 9.85L305.73 9.85Q302.63 9.85 299.88 8.93 297.13 8 294.68 6.35L294.68 6.35 297.13 2.4Q299.03 3.8 301.03 4.58 303.03 5.35 305.48 5.35L305.48 5.35Q308.03 5.35 309.9 4.38 311.78 3.4 312.8 1.65 313.83-0.1 313.83-2.5L313.83-2.5 313.83-26.55 319.53-26.55ZM304.83-26.75L304.83-26.75Q308.33-26.8 310.8-25.28 313.28-23.75 314.58-20.9 315.88-18.05 315.83-14.05L315.83-14.05Q315.88-10.05 314.6-7.18 313.33-4.3 310.9-2.78 308.48-1.25 305.03-1.25L305.03-1.25Q301.43-1.25 298.73-2.88 296.03-4.5 294.53-7.4 293.03-10.3 293.03-14.1L293.03-14.1Q293.03-17.85 294.5-20.68 295.98-23.5 298.65-25.13 301.33-26.75 304.83-26.75ZM306.18-22.35L306.18-22.35Q303.93-22.35 302.18-21.28 300.43-20.2 299.45-18.3 298.48-16.4 298.43-13.95L298.43-13.95Q298.48-11.5 299.45-9.6 300.43-7.7 302.15-6.63 303.88-5.55 306.18-5.55L306.18-5.55Q308.43-5.55 310.15-6.63 311.88-7.7 312.85-9.6 313.83-11.5 313.83-13.95L313.83-13.95Q313.83-16.45 312.85-18.32 311.88-20.2 310.15-21.28 308.43-22.35 306.18-22.35ZM341.37-35L355.72-35Q359.67-35 362.97-33.7 366.27-32.4 368.7-30.05 371.12-27.7 372.47-24.5 373.82-21.3 373.82-17.5L373.82-17.5Q373.82-13.7 372.47-10.53 371.12-7.35 368.67-4.98 366.22-2.6 362.87-1.3 359.52 0 355.57 0L355.57 0 341.37 0 341.37-35ZM347.27-5.05L355.87-5.05Q358.42-5.05 360.6-5.95 362.77-6.85 364.4-8.53 366.02-10.2 366.95-12.48 367.87-14.75 367.87-17.45L367.87-17.45Q367.87-20.2 366.92-22.48 365.97-24.75 364.32-26.45 362.67-28.15 360.45-29.05 358.22-29.95 355.62-29.95L355.62-29.95 347.27-29.95 347.27-5.05ZM379.77 0L379.77-26.55 385.47-26.55 385.47 0 379.77 0ZM382.62-37.5L382.62-37.5Q384.07-37.5 385.02-36.55 385.97-35.6 385.97-34.15L385.97-34.15Q385.97-32.75 385.02-31.78 384.07-30.8 382.62-30.8L382.62-30.8Q381.22-30.8 380.25-31.78 379.27-32.75 379.27-34.15L379.27-34.15Q379.27-35.6 380.25-36.55 381.22-37.5 382.62-37.5ZM417.97-26.55L417.97-2.65Q417.97 1.2 416.27 4 414.57 6.8 411.47 8.33 408.37 9.85 404.17 9.85L404.17 9.85Q401.07 9.85 398.32 8.93 395.57 8 393.12 6.35L393.12 6.35 395.57 2.4Q397.47 3.8 399.47 4.58 401.47 5.35 403.92 5.35L403.92 5.35Q406.47 5.35 408.34 4.38 410.22 3.4 411.24 1.65 412.27-0.1 412.27-2.5L412.27-2.5 412.27-26.55 417.97-26.55ZM403.27-26.75L403.27-26.75Q406.77-26.8 409.24-25.28 411.72-23.75 413.02-20.9 414.32-18.05 414.27-14.05L414.27-14.05Q414.32-10.05 413.04-7.18 411.77-4.3 409.34-2.78 406.92-1.25 403.47-1.25L403.47-1.25Q399.87-1.25 397.17-2.88 394.47-4.5 392.97-7.4 391.47-10.3 391.47-14.1L391.47-14.1Q391.47-17.85 392.94-20.68 394.42-23.5 397.09-25.13 399.77-26.75 403.27-26.75ZM404.62-22.35L404.62-22.35Q402.37-22.35 400.62-21.28 398.87-20.2 397.89-18.3 396.92-16.4 396.87-13.95L396.87-13.95Q396.92-11.5 397.89-9.6 398.87-7.7 400.59-6.63 402.32-5.55 404.62-5.55L404.62-5.55Q406.87-5.55 408.59-6.63 410.32-7.7 411.29-9.6 412.27-11.5 412.27-13.95L412.27-13.95Q412.27-16.45 411.29-18.32 410.32-20.2 408.59-21.28 406.87-22.35 404.62-22.35ZM425.97 0L425.97-26.55 431.67-26.55 431.67 0 425.97 0ZM428.82-37.5L428.82-37.5Q430.27-37.5 431.22-36.55 432.17-35.6 432.17-34.15L432.17-34.15Q432.17-32.75 431.22-31.78 430.27-30.8 428.82-30.8L428.82-30.8Q427.42-30.8 426.44-31.78 425.47-32.75 425.47-34.15L425.47-34.15Q425.47-35.6 426.44-36.55 427.42-37.5 428.82-37.5ZM446.91-32.85L446.91-8.4Q446.91-6.25 447.66-5.48 448.41-4.7 449.76-4.7L449.76-4.7Q450.66-4.7 451.64-5 452.61-5.3 453.76-5.9L453.76-5.9 455.21-1.75Q453.66-0.8 452.01-0.28 450.36 0.25 448.66 0.25L448.66 0.25Q446.66 0.25 444.96-0.53 443.26-1.3 442.24-3 441.21-4.7 441.21-7.4L441.21-7.4 441.21-32.85 446.91-32.85ZM437.46-21.5L437.46-25.6 454.76-25.6 454.76-21.5 437.46-21.5ZM477.16-11.85L469.21-11.85Q466.41-11.85 465.06-11 463.71-10.15 463.71-8.2L463.71-8.2Q463.71-6.35 465.09-5.25 466.46-4.15 468.86-4.15L468.86-4.15Q471.01-4.15 472.71-4.9 474.41-5.65 475.41-6.93 476.41-8.2 476.46-9.8L476.46-9.8 477.56-4.95Q476.31-2.35 473.76-1.05 471.21 0.25 467.66 0.25L467.66 0.25Q464.81 0.25 462.71-0.85 460.61-1.95 459.46-3.83 458.31-5.7 458.31-8L458.31-8Q458.31-11.6 460.94-13.75 463.56-15.9 468.36-15.95L468.36-15.95 477.16-15.95 477.16-11.85ZM476.46 0L476.41-16.85Q476.41-19.45 474.81-20.9 473.21-22.35 470.06-22.35L470.06-22.35Q468.16-22.35 466.19-21.65 464.21-20.95 462.21-19.6L462.21-19.6 459.86-23.3Q461.71-24.45 463.36-25.2 465.01-25.95 466.89-26.35 468.76-26.75 471.31-26.75L471.31-26.75Q476.46-26.75 479.24-24.28 482.01-21.8 482.06-17.45L482.06-17.45 482.11 0 476.46 0ZM490.06 0L490.06-37.1 495.81-37.1 495.81 0 490.06 0ZM542.15-31.85L539.7-26.9Q537.8-28.1 535.95-28.8 534.1-29.5 532.45-29.8 530.8-30.1 529.45-30.1L529.45-30.1Q526.85-30.1 525.3-29.1 523.75-28.1 523.75-26.2L523.75-26.2Q523.75-24.5 524.78-23.43 525.8-22.35 527.48-21.68 529.15-21 531.18-20.4 533.2-19.8 535.2-19.07 537.2-18.35 538.9-17.2 540.6-16.05 541.6-14.28 542.6-12.5 542.6-9.8L542.6-9.8Q542.6-6.7 540.9-4.42 539.2-2.15 536.23-0.9 533.25 0.35 529.4 0.35L529.4 0.35Q526.65 0.35 524.05-0.38 521.45-1.1 519.18-2.35 516.9-3.6 515.1-5.25L515.1-5.25 517.65-10.1Q519.45-8.45 521.48-7.3 523.5-6.15 525.58-5.55 527.65-4.95 529.5-4.95L529.5-4.95Q532.6-4.95 534.33-6.15 536.05-7.35 536.05-9.5L536.05-9.5Q536.05-11.25 535.03-12.33 534-13.4 532.33-14.1 530.65-14.8 528.63-15.35 526.6-15.9 524.58-16.63 522.55-17.35 520.88-18.45 519.2-19.55 518.18-21.3 517.15-23.05 517.15-25.75L517.15-25.75Q517.15-28.7 518.75-30.88 520.35-33.05 523.23-34.25 526.1-35.45 529.9-35.45L529.9-35.45Q533.3-35.45 536.5-34.45 539.7-33.45 542.15-31.85L542.15-31.85ZM551.3-15.2L567.55-15.2Q567.45-17.45 566.52-19.03 565.6-20.6 563.95-21.48 562.3-22.35 560.15-22.35L560.15-22.35Q557.75-22.35 555.98-21.25 554.2-20.15 553.2-18.18 552.2-16.2 552.2-13.55L552.2-13.55Q552.2-10.7 553.27-8.6 554.35-6.5 556.27-5.35 558.2-4.2 560.7-4.2L560.7-4.2Q565.15-4.2 568.2-7.35L568.2-7.35 571.25-4.3Q569.3-2.15 566.5-0.98 563.7 0.2 560.25 0.2L560.25 0.2Q556.15 0.2 553.1-1.5 550.05-3.2 548.35-6.23 546.65-9.25 546.65-13.25L546.65-13.25Q546.65-17.25 548.35-20.28 550.05-23.3 553.1-25 556.15-26.7 560.1-26.75L560.1-26.75Q564.8-26.75 567.65-24.83 570.5-22.9 571.7-19.4 572.9-15.9 572.55-11.1L572.55-11.1 551.3-11.1 551.3-15.2ZM600.45-22.65L597.3-18.95Q595.9-20.4 594-21.2 592.1-22 589.7-22L589.7-22Q587.4-22 585.6-20.9 583.8-19.8 582.8-17.82 581.8-15.85 581.8-13.25L581.8-13.25Q581.8-10.65 582.8-8.68 583.8-6.7 585.6-5.58 587.4-4.45 589.7-4.45L589.7-4.45Q592.2-4.45 594.2-5.28 596.2-6.1 597.55-7.7L597.55-7.7 600.75-4.55Q598.95-2.3 596.07-1.05 593.2 0.2 589.45 0.2L589.45 0.2Q585.5 0.2 582.47-1.5 579.45-3.2 577.75-6.23 576.05-9.25 576.05-13.25L576.05-13.25Q576.05-17.25 577.75-20.28 579.45-23.3 582.47-25.03 585.5-26.75 589.45-26.75L589.45-26.75Q593.05-26.75 595.82-25.68 598.6-24.6 600.45-22.65L600.45-22.65ZM611.64-26.55L611.64-11.55Q611.64-8.45 613.29-6.68 614.94-4.9 617.84-4.9L617.84-4.9Q621.29-5 623.22-7.45 625.14-9.9 625.14-13.5L625.14-13.5 626.69-13.5Q626.69-8.6 625.34-5.6 623.99-2.6 621.52-1.23 619.04 0.15 615.64 0.2L615.64 0.2Q612.59 0.2 610.42-1.05 608.24-2.3 607.07-4.6 605.89-6.9 605.89-10.05L605.89-10.05 605.89-26.55 611.64-26.55ZM625.14 0L625.14-26.55 630.89-26.55 630.89 0 625.14 0ZM654.34-26.75L654.34-21.55Q651.49-21.7 649.42-20.58 647.34-19.45 646.22-17.45 645.09-15.45 645.09-12.85L645.09-12.85 643.49-13.05Q643.49-17.5 644.79-20.55 646.09-23.6 648.54-25.18 650.99-26.75 654.34-26.75L654.34-26.75ZM639.39 0L639.39-26.55 645.14-26.55 645.14 0 639.39 0ZM659.09 0L659.09-26.55 664.79-26.55 664.79 0 659.09 0ZM661.94-37.5L661.94-37.5Q663.39-37.5 664.34-36.55 665.29-35.6 665.29-34.15L665.29-34.15Q665.29-32.75 664.34-31.78 663.39-30.8 661.94-30.8L661.94-30.8Q660.54-30.8 659.56-31.78 658.59-32.75 658.59-34.15L658.59-34.15Q658.59-35.6 659.56-36.55 660.54-37.5 661.94-37.5ZM680.04-32.85L680.04-8.4Q680.04-6.25 680.79-5.48 681.54-4.7 682.89-4.7L682.89-4.7Q683.79-4.7 684.76-5 685.74-5.3 686.89-5.9L686.89-5.9 688.34-1.75Q686.79-0.8 685.14-0.28 683.49 0.25 681.79 0.25L681.79 0.25Q679.79 0.25 678.09-0.53 676.39-1.3 675.36-3 674.34-4.7 674.34-7.4L674.34-7.4 674.34-32.85 680.04-32.85ZM670.59-21.5L670.59-25.6 687.89-25.6 687.89-21.5 670.59-21.5ZM716.18-26.55L704.08 3.75Q702.83 6.8 700.63 8.38 698.43 9.95 695.43 9.95L695.43 9.95Q693.63 9.95 692.16 9.4 690.68 8.85 689.28 7.75L689.28 7.75 691.73 3.5Q693.53 4.8 695.18 4.8L695.18 4.8Q696.48 4.8 697.53 4.05 698.58 3.3 699.23 1.75L699.23 1.75 700.13-0.35 689.13-26.55 695.08-26.55 703.03-6.05 710.43-26.55 716.18-26.55Z" opacity="1" transform="matrix(1,0,0,1,0,0)" fill="black" class="slogan-text-1" id="SvgjsPath1428"></path></svg></g></svg></g></svg></g></svg></g><g><svg viewBox="0 0 130.0524850372692 155.45647892212918" height="155.45647892212918" width="130.0524850372692"><g><svg xmlns="http://www.w3.org/2000/svg" xmlns:xlink="http://www.w3.org/1999/xlink" version="1.1" x="0" y="0" viewBox="16.609829953919423 11.353 66.78443125211547 79.82986658267758" enable-background="new 0 0 100 100" xml:space="preserve" height="155.45647892212918" width="130.0524850372692" class="icon-icon-0" data-fill-palette-color="accent" id="SvgjsSvg1427"><g fill="black"><path d="M82.932 26.583A1.5 1.5 0 0 0 81.717 26.175C81.707 26.176 80.666 26.295 78.981 26.295 75.975 26.295 71.384 25.932 66.582 24.204 58.845 21.418 50.582 11.965 50.5 11.87 50.201 11.526 49.759 11.358 49.308 11.353A1.5 1.5 0 0 0 48.161 11.96C48.091 12.055 41.019 21.526 33.378 24.075 27.804 25.933 22.521 26.211 19.868 26.211 18.848 26.211 18.248 26.169 18.219 26.167A1.48 1.48 0 0 0 17.059 26.593 1.5 1.5 0 0 0 16.612 27.744C16.665 28.731 17.952 52.026 20.712 61.367 26.223 80.021 47.801 90.594 48.717 91.035A1.5 1.5 0 0 0 49.886 91.09C50.67 90.801 69.198 83.757 77.754 61.479 81.49 51.745 83.315 28.753 83.39 27.779A1.5 1.5 0 0 0 82.932 26.583M74.951 60.405C67.727 79.214 52.594 86.656 49.43 88.034 45.972 86.222 28.24 76.27 23.586 60.518 21.334 52.894 20.05 34.746 19.702 29.211 22.488 29.199 28.23 28.952 34.325 26.921 41.022 24.687 47.024 18.099 49.446 15.166 52.137 18.019 58.856 24.61 65.565 27.025 70.774 28.9 75.736 29.294 78.98 29.294 79.45 29.294 79.875 29.285 80.249 29.273 79.745 34.866 77.961 52.565 74.951 60.405" fill="black"></path><path d="M49.666 20.447V52.238H73.599C74.91 45.956 75.848 38.186 76.4 32.831 73.267 32.648 68.92 32.065 64.38 30.431 58.862 28.444 53.463 24.058 49.666 20.447" fill="black"></path><path d="M26.943 59.639C30.731 72.458 44.527 81.344 49.48 84.18V52.152H25.442C25.881 55.095 26.382 57.738 26.943 59.639" fill="black"></path></g></svg></g></svg></g></svg></g><defs><mask></mask></defs></svg><rect width="395.52" height="113.43901060343977" fill="black" stroke="none" visibility="hidden"></rect></g></mask><linearGradient x1="0" x2="1" y1="0.5" y2="0.5" id="b25896f3-1ed6-4e46-a219-bd5d4d64733f"><stop stop-color="#f00b51" offset="0"></stop><stop stop-color="#730062" offset="1"></stop></linearGradient><rect width="395.52" height="113.43901060343977" fill="url(#b25896f3-1ed6-4e46-a219-bd5d4d64733f)" mask="url(#5bda7cd0-9985-40c1-a4b3-e77e451c0ed5)" data-fill-palette-color="primary"></rect><mask id="6190589a-d2a8-4798-b220-1647492f5e16"><g id="SvgjsG1443"><svg viewBox="0 0 395.52 113.43901060343977" height="113.43901060343977" width="395.52"><g><svg viewBox="0 0 542.0194183306471 155.45647892212918" height="113.43901060343977" width="395.52"><g transform="matrix(1,0,0,1,146.49941833064713,21.48494028518573)"><svg viewBox="0 0 395.52 112.48659835175772" height="112.48659835175772" width="395.52"><g id="SvgjsG1442"><svg viewBox="0 0 395.52 112.48659835175772" height="112.48659835175772" width="395.52" id="SvgjsSvg1441"><g><svg viewBox="0 0 395.52 69.66795986622073" height="69.66795986622073" width="395.52"><g transform="matrix(1,0,0,1,0,0)"><svg width="395.52" viewBox="4.5 -29 224.23 39.5" height="69.66795986622073" data-palette-color="url(#b25896f3-1ed6-4e46-a219-bd5d4d64733f)"></svg></g></svg></g><g transform="matrix(1,0,0,1,0,86.11489315959865)"><svg viewBox="0 0 395.52 26.371705192159066" height="26.371705192159066" width="395.52"><g transform="matrix(1,0,0,1,0,0)"><svg width="395.52" viewBox="4.6 -37.5 711.5799999999999 47.45" height="26.371705192159066" data-palette-color="#bcbcbc"><path d="M4.6 0L4.6-35 29.6-35 29.6-29.95 10.5-29.95 10.5-20.1 27.6-20.1 27.6-15.1 10.5-15.1 10.5-5.05 30.2-5.05 30.2 0 4.6 0ZM56.4 0L56.4-15Q56.4-18.15 54.75-19.93 53.1-21.7 50.15-21.7L50.15-21.7Q46.7-21.6 44.72-19.15 42.75-16.7 42.75-13.1L42.75-13.1 41.15-13.1Q41.15-18 42.52-21 43.9-24 46.42-25.38 48.95-26.75 52.4-26.75L52.4-26.75Q55.45-26.75 57.62-25.5 59.8-24.25 60.97-21.98 62.15-19.7 62.15-16.5L62.15-16.5 62.15 0 56.4 0ZM75.75 0L75.75-15Q75.75-18.15 74.07-19.93 72.4-21.7 69.45-21.7L69.45-21.7Q66.05-21.6 64.1-19.15 62.15-16.7 62.15-13.1L62.15-13.1 60.5-13.1Q60.5-18 61.87-21 63.25-24 65.77-25.38 68.3-26.75 71.75-26.75L71.75-26.75Q74.8-26.75 76.97-25.5 79.15-24.25 80.32-21.98 81.5-19.7 81.5-16.5L81.5-16.5 81.5 0 75.75 0ZM37.05 0L37.05-26.55 42.75-26.55 42.75 0 37.05 0ZM104.5-26.75L104.5-26.75Q108.3-26.75 111.15-25.05 114-23.35 115.6-20.3 117.2-17.25 117.2-13.2L117.2-13.2Q117.2-9.25 115.62-6.23 114.05-3.2 111.22-1.5 108.4 0.2 104.6 0.2L104.6 0.2Q100.95 0.2 98.37-1.4 95.8-3 94.45-6.03 93.1-9.05 93.1-13.2L93.1-13.2Q93.1-17.5 94.45-20.53 95.8-23.55 98.37-25.15 100.95-26.75 104.5-26.75ZM103.3-22.2L103.3-22.2Q100.95-22.2 99.1-21.05 97.25-19.9 96.22-17.93 95.2-15.95 95.2-13.35L95.2-13.35Q95.2-10.75 96.22-8.72 97.25-6.7 99.1-5.58 100.95-4.45 103.3-4.45L103.3-4.45Q105.7-4.45 107.52-5.6 109.35-6.75 110.37-8.75 111.4-10.75 111.4-13.35L111.4-13.35Q111.4-15.9 110.37-17.9 109.35-19.9 107.52-21.05 105.7-22.2 103.3-22.2ZM89.45 9.7L89.45-26.55 95.2-26.55 95.2 9.7 89.45 9.7ZM134.59-26.75L134.59-26.75Q138.69-26.75 141.82-25.05 144.94-23.35 146.69-20.33 148.44-17.3 148.44-13.3L148.44-13.3Q148.44-9.3 146.69-6.25 144.94-3.2 141.82-1.5 138.69 0.2 134.59 0.2L134.59 0.2Q130.49 0.2 127.34-1.5 124.19-3.2 122.44-6.25 120.69-9.3 120.69-13.3L120.69-13.3Q120.69-17.3 122.44-20.33 124.19-23.35 127.34-25.05 130.49-26.75 134.59-26.75ZM134.59-22.1L134.59-22.1Q132.19-22.1 130.34-20.98 128.49-19.85 127.47-17.85 126.44-15.85 126.44-13.25L126.44-13.25Q126.44-10.6 127.47-8.6 128.49-6.6 130.34-5.48 132.19-4.35 134.59-4.35L134.59-4.35Q136.99-4.35 138.82-5.48 140.64-6.6 141.67-8.6 142.69-10.6 142.69-13.25L142.69-13.25Q142.69-15.85 141.67-17.85 140.64-19.85 138.82-20.98 136.99-22.1 134.59-22.1ZM160.04 0L150.24-26.55 156.14-26.55 163.04-5.3 169.74-26.55 175.69-26.55 182.44-5.3 189.24-26.55 195.09-26.55 185.39 0 179.44 0 172.69-20.1 165.94 0 160.04 0ZM201.24-15.2L217.49-15.2Q217.39-17.45 216.46-19.03 215.54-20.6 213.89-21.48 212.24-22.35 210.09-22.35L210.09-22.35Q207.69-22.35 205.91-21.25 204.14-20.15 203.14-18.18 202.14-16.2 202.14-13.55L202.14-13.55Q202.14-10.7 203.21-8.6 204.29-6.5 206.21-5.35 208.14-4.2 210.64-4.2L210.64-4.2Q215.09-4.2 218.14-7.35L218.14-7.35 221.19-4.3Q219.24-2.15 216.44-0.98 213.64 0.2 210.19 0.2L210.19 0.2Q206.09 0.2 203.04-1.5 199.99-3.2 198.29-6.23 196.59-9.25 196.59-13.25L196.59-13.25Q196.59-17.25 198.29-20.28 199.99-23.3 203.04-25 206.09-26.7 210.04-26.75L210.04-26.75Q214.74-26.75 217.59-24.83 220.44-22.9 221.64-19.4 222.84-15.9 222.49-11.1L222.49-11.1 201.24-11.1 201.24-15.2ZM243.44-26.75L243.44-21.55Q240.59-21.7 238.51-20.58 236.44-19.45 235.31-17.45 234.19-15.45 234.19-12.85L234.19-12.85 232.59-13.05Q232.59-17.5 233.89-20.55 235.19-23.6 237.64-25.18 240.09-26.75 243.44-26.75L243.44-26.75ZM228.49 0L228.49-26.55 234.24-26.55 234.24 0 228.49 0ZM248.18 0L248.18-26.55 253.88-26.55 253.88 0 248.18 0ZM251.03-37.5L251.03-37.5Q252.48-37.5 253.43-36.55 254.38-35.6 254.38-34.15L254.38-34.15Q254.38-32.75 253.43-31.78 252.48-30.8 251.03-30.8L251.03-30.8Q249.63-30.8 248.66-31.78 247.68-32.75 247.68-34.15L247.68-34.15Q247.68-35.6 248.66-36.55 249.63-37.5 251.03-37.5ZM282.08 0L282.08-15Q282.08-18.1 280.38-19.88 278.68-21.65 275.68-21.65L275.68-21.65Q272.13-21.6 270.11-19.15 268.08-16.7 268.08-13.05L268.08-13.05 266.48-13.05Q266.48-18 267.88-21 269.28-24 271.86-25.38 274.43-26.75 277.93-26.75L277.93-26.75Q281.03-26.75 283.26-25.5 285.48-24.25 286.66-21.98 287.83-19.7 287.83-16.5L287.83-16.5 287.83 0 282.08 0ZM262.38 0L262.38-26.55 268.13-26.55 268.13 0 262.38 0ZM319.53-26.55L319.53-2.65Q319.53 1.2 317.83 4 316.13 6.8 313.03 8.33 309.93 9.85 305.73 9.85L305.73 9.85Q302.63 9.85 299.88 8.93 297.13 8 294.68 6.35L294.68 6.35 297.13 2.4Q299.03 3.8 301.03 4.58 303.03 5.35 305.48 5.35L305.48 5.35Q308.03 5.35 309.9 4.38 311.78 3.4 312.8 1.65 313.83-0.1 313.83-2.5L313.83-2.5 313.83-26.55 319.53-26.55ZM304.83-26.75L304.83-26.75Q308.33-26.8 310.8-25.28 313.28-23.75 314.58-20.9 315.88-18.05 315.83-14.05L315.83-14.05Q315.88-10.05 314.6-7.18 313.33-4.3 310.9-2.78 308.48-1.25 305.03-1.25L305.03-1.25Q301.43-1.25 298.73-2.88 296.03-4.5 294.53-7.4 293.03-10.3 293.03-14.1L293.03-14.1Q293.03-17.85 294.5-20.68 295.98-23.5 298.65-25.13 301.33-26.75 304.83-26.75ZM306.18-22.35L306.18-22.35Q303.93-22.35 302.18-21.28 300.43-20.2 299.45-18.3 298.48-16.4 298.43-13.95L298.43-13.95Q298.48-11.5 299.45-9.6 300.43-7.7 302.15-6.63 303.88-5.55 306.18-5.55L306.18-5.55Q308.43-5.55 310.15-6.63 311.88-7.7 312.85-9.6 313.83-11.5 313.83-13.95L313.83-13.95Q313.83-16.45 312.85-18.32 311.88-20.2 310.15-21.28 308.43-22.35 306.18-22.35ZM341.37-35L355.72-35Q359.67-35 362.97-33.7 366.27-32.4 368.7-30.05 371.12-27.7 372.47-24.5 373.82-21.3 373.82-17.5L373.82-17.5Q373.82-13.7 372.47-10.53 371.12-7.35 368.67-4.98 366.22-2.6 362.87-1.3 359.52 0 355.57 0L355.57 0 341.37 0 341.37-35ZM347.27-5.05L355.87-5.05Q358.42-5.05 360.6-5.95 362.77-6.85 364.4-8.53 366.02-10.2 366.95-12.48 367.87-14.75 367.87-17.45L367.87-17.45Q367.87-20.2 366.92-22.48 365.97-24.75 364.32-26.45 362.67-28.15 360.45-29.05 358.22-29.95 355.62-29.95L355.62-29.95 347.27-29.95 347.27-5.05ZM379.77 0L379.77-26.55 385.47-26.55 385.47 0 379.77 0ZM382.62-37.5L382.62-37.5Q384.07-37.5 385.02-36.55 385.97-35.6 385.97-34.15L385.97-34.15Q385.97-32.75 385.02-31.78 384.07-30.8 382.62-30.8L382.62-30.8Q381.22-30.8 380.25-31.78 379.27-32.75 379.27-34.15L379.27-34.15Q379.27-35.6 380.25-36.55 381.22-37.5 382.62-37.5ZM417.97-26.55L417.97-2.65Q417.97 1.2 416.27 4 414.57 6.8 411.47 8.33 408.37 9.85 404.17 9.85L404.17 9.85Q401.07 9.85 398.32 8.93 395.57 8 393.12 6.35L393.12 6.35 395.57 2.4Q397.47 3.8 399.47 4.58 401.47 5.35 403.92 5.35L403.92 5.35Q406.47 5.35 408.34 4.38 410.22 3.4 411.24 1.65 412.27-0.1 412.27-2.5L412.27-2.5 412.27-26.55 417.97-26.55ZM403.27-26.75L403.27-26.75Q406.77-26.8 409.24-25.28 411.72-23.75 413.02-20.9 414.32-18.05 414.27-14.05L414.27-14.05Q414.32-10.05 413.04-7.18 411.77-4.3 409.34-2.78 406.92-1.25 403.47-1.25L403.47-1.25Q399.87-1.25 397.17-2.88 394.47-4.5 392.97-7.4 391.47-10.3 391.47-14.1L391.47-14.1Q391.47-17.85 392.94-20.68 394.42-23.5 397.09-25.13 399.77-26.75 403.27-26.75ZM404.62-22.35L404.62-22.35Q402.37-22.35 400.62-21.28 398.87-20.2 397.89-18.3 396.92-16.4 396.87-13.95L396.87-13.95Q396.92-11.5 397.89-9.6 398.87-7.7 400.59-6.63 402.32-5.55 404.62-5.55L404.62-5.55Q406.87-5.55 408.59-6.63 410.32-7.7 411.29-9.6 412.27-11.5 412.27-13.95L412.27-13.95Q412.27-16.45 411.29-18.32 410.32-20.2 408.59-21.28 406.87-22.35 404.62-22.35ZM425.97 0L425.97-26.55 431.67-26.55 431.67 0 425.97 0ZM428.82-37.5L428.82-37.5Q430.27-37.5 431.22-36.55 432.17-35.6 432.17-34.15L432.17-34.15Q432.17-32.75 431.22-31.78 430.27-30.8 428.82-30.8L428.82-30.8Q427.42-30.8 426.44-31.78 425.47-32.75 425.47-34.15L425.47-34.15Q425.47-35.6 426.44-36.55 427.42-37.5 428.82-37.5ZM446.91-32.85L446.91-8.4Q446.91-6.25 447.66-5.48 448.41-4.7 449.76-4.7L449.76-4.7Q450.66-4.7 451.64-5 452.61-5.3 453.76-5.9L453.76-5.9 455.21-1.75Q453.66-0.8 452.01-0.28 450.36 0.25 448.66 0.25L448.66 0.25Q446.66 0.25 444.96-0.53 443.26-1.3 442.24-3 441.21-4.7 441.21-7.4L441.21-7.4 441.21-32.85 446.91-32.85ZM437.46-21.5L437.46-25.6 454.76-25.6 454.76-21.5 437.46-21.5ZM477.16-11.85L469.21-11.85Q466.41-11.85 465.06-11 463.71-10.15 463.71-8.2L463.71-8.2Q463.71-6.35 465.09-5.25 466.46-4.15 468.86-4.15L468.86-4.15Q471.01-4.15 472.71-4.9 474.41-5.65 475.41-6.93 476.41-8.2 476.46-9.8L476.46-9.8 477.56-4.95Q476.31-2.35 473.76-1.05 471.21 0.25 467.66 0.25L467.66 0.25Q464.81 0.25 462.71-0.85 460.61-1.95 459.46-3.83 458.31-5.7 458.31-8L458.31-8Q458.31-11.6 460.94-13.75 463.56-15.9 468.36-15.95L468.36-15.95 477.16-15.95 477.16-11.85ZM476.46 0L476.41-16.85Q476.41-19.45 474.81-20.9 473.21-22.35 470.06-22.35L470.06-22.35Q468.16-22.35 466.19-21.65 464.21-20.95 462.21-19.6L462.21-19.6 459.86-23.3Q461.71-24.45 463.36-25.2 465.01-25.95 466.89-26.35 468.76-26.75 471.31-26.75L471.31-26.75Q476.46-26.75 479.24-24.28 482.01-21.8 482.06-17.45L482.06-17.45 482.11 0 476.46 0ZM490.06 0L490.06-37.1 495.81-37.1 495.81 0 490.06 0ZM542.15-31.85L539.7-26.9Q537.8-28.1 535.95-28.8 534.1-29.5 532.45-29.8 530.8-30.1 529.45-30.1L529.45-30.1Q526.85-30.1 525.3-29.1 523.75-28.1 523.75-26.2L523.75-26.2Q523.75-24.5 524.78-23.43 525.8-22.35 527.48-21.68 529.15-21 531.18-20.4 533.2-19.8 535.2-19.07 537.2-18.35 538.9-17.2 540.6-16.05 541.6-14.28 542.6-12.5 542.6-9.8L542.6-9.8Q542.6-6.7 540.9-4.42 539.2-2.15 536.23-0.9 533.25 0.35 529.4 0.35L529.4 0.35Q526.65 0.35 524.05-0.38 521.45-1.1 519.18-2.35 516.9-3.6 515.1-5.25L515.1-5.25 517.65-10.1Q519.45-8.45 521.48-7.3 523.5-6.15 525.58-5.55 527.65-4.95 529.5-4.95L529.5-4.95Q532.6-4.95 534.33-6.15 536.05-7.35 536.05-9.5L536.05-9.5Q536.05-11.25 535.03-12.33 534-13.4 532.33-14.1 530.65-14.8 528.63-15.35 526.6-15.9 524.58-16.63 522.55-17.35 520.88-18.45 519.2-19.55 518.18-21.3 517.15-23.05 517.15-25.75L517.15-25.75Q517.15-28.7 518.75-30.88 520.35-33.05 523.23-34.25 526.1-35.45 529.9-35.45L529.9-35.45Q533.3-35.45 536.5-34.45 539.7-33.45 542.15-31.85L542.15-31.85ZM551.3-15.2L567.55-15.2Q567.45-17.45 566.52-19.03 565.6-20.6 563.95-21.48 562.3-22.35 560.15-22.35L560.15-22.35Q557.75-22.35 555.98-21.25 554.2-20.15 553.2-18.18 552.2-16.2 552.2-13.55L552.2-13.55Q552.2-10.7 553.27-8.6 554.35-6.5 556.27-5.35 558.2-4.2 560.7-4.2L560.7-4.2Q565.15-4.2 568.2-7.35L568.2-7.35 571.25-4.3Q569.3-2.15 566.5-0.98 563.7 0.2 560.25 0.2L560.25 0.2Q556.15 0.2 553.1-1.5 550.05-3.2 548.35-6.23 546.65-9.25 546.65-13.25L546.65-13.25Q546.65-17.25 548.35-20.28 550.05-23.3 553.1-25 556.15-26.7 560.1-26.75L560.1-26.75Q564.8-26.75 567.65-24.83 570.5-22.9 571.7-19.4 572.9-15.9 572.55-11.1L572.55-11.1 551.3-11.1 551.3-15.2ZM600.45-22.65L597.3-18.95Q595.9-20.4 594-21.2 592.1-22 589.7-22L589.7-22Q587.4-22 585.6-20.9 583.8-19.8 582.8-17.82 581.8-15.85 581.8-13.25L581.8-13.25Q581.8-10.65 582.8-8.68 583.8-6.7 585.6-5.58 587.4-4.45 589.7-4.45L589.7-4.45Q592.2-4.45 594.2-5.28 596.2-6.1 597.55-7.7L597.55-7.7 600.75-4.55Q598.95-2.3 596.07-1.05 593.2 0.2 589.45 0.2L589.45 0.2Q585.5 0.2 582.47-1.5 579.45-3.2 577.75-6.23 576.05-9.25 576.05-13.25L576.05-13.25Q576.05-17.25 577.75-20.28 579.45-23.3 582.47-25.03 585.5-26.75 589.45-26.75L589.45-26.75Q593.05-26.75 595.82-25.68 598.6-24.6 600.45-22.65L600.45-22.65ZM611.64-26.55L611.64-11.55Q611.64-8.45 613.29-6.68 614.94-4.9 617.84-4.9L617.84-4.9Q621.29-5 623.22-7.45 625.14-9.9 625.14-13.5L625.14-13.5 626.69-13.5Q626.69-8.6 625.34-5.6 623.99-2.6 621.52-1.23 619.04 0.15 615.64 0.2L615.64 0.2Q612.59 0.2 610.42-1.05 608.24-2.3 607.07-4.6 605.89-6.9 605.89-10.05L605.89-10.05 605.89-26.55 611.64-26.55ZM625.14 0L625.14-26.55 630.89-26.55 630.89 0 625.14 0ZM654.34-26.75L654.34-21.55Q651.49-21.7 649.42-20.58 647.34-19.45 646.22-17.45 645.09-15.45 645.09-12.85L645.09-12.85 643.49-13.05Q643.49-17.5 644.79-20.55 646.09-23.6 648.54-25.18 650.99-26.75 654.34-26.75L654.34-26.75ZM639.39 0L639.39-26.55 645.14-26.55 645.14 0 639.39 0ZM659.09 0L659.09-26.55 664.79-26.55 664.79 0 659.09 0ZM661.94-37.5L661.94-37.5Q663.39-37.5 664.34-36.55 665.29-35.6 665.29-34.15L665.29-34.15Q665.29-32.75 664.34-31.78 663.39-30.8 661.94-30.8L661.94-30.8Q660.54-30.8 659.56-31.78 658.59-32.75 658.59-34.15L658.59-34.15Q658.59-35.6 659.56-36.55 660.54-37.5 661.94-37.5ZM680.04-32.85L680.04-8.4Q680.04-6.25 680.79-5.48 681.54-4.7 682.89-4.7L682.89-4.7Q683.79-4.7 684.76-5 685.74-5.3 686.89-5.9L686.89-5.9 688.34-1.75Q686.79-0.8 685.14-0.28 683.49 0.25 681.79 0.25L681.79 0.25Q679.79 0.25 678.09-0.53 676.39-1.3 675.36-3 674.34-4.7 674.34-7.4L674.34-7.4 674.34-32.85 680.04-32.85ZM670.59-21.5L670.59-25.6 687.89-25.6 687.89-21.5 670.59-21.5ZM716.18-26.55L704.08 3.75Q702.83 6.8 700.63 8.38 698.43 9.95 695.43 9.95L695.43 9.95Q693.63 9.95 692.16 9.4 690.68 8.85 689.28 7.75L689.28 7.75 691.73 3.5Q693.53 4.8 695.18 4.8L695.18 4.8Q696.48 4.8 697.53 4.05 698.58 3.3 699.23 1.75L699.23 1.75 700.13-0.35 689.13-26.55 695.08-26.55 703.03-6.05 710.43-26.55 716.18-26.55Z" opacity="1" transform="matrix(1,0,0,1,0,0)" fill="black" class="slogan-text-1" id="SvgjsPath1440"></path></svg></g></svg></g></svg></g></svg></g><g><svg viewBox="0 0 130.0524850372692 155.45647892212918" height="155.45647892212918" width="130.0524850372692"><g><svg xmlns="http://www.w3.org/2000/svg" xmlns:xlink="http://www.w3.org/1999/xlink" version="1.1" x="0" y="0" viewBox="16.609829953919423 11.353 66.78443125211547 79.82986658267758" enable-background="new 0 0 100 100" xml:space="preserve" height="155.45647892212918" width="130.0524850372692" class="icon-icon-0" data-fill-palette-color="accent" id="SvgjsSvg1439"><g fill="white"><path d="M82.932 26.583A1.5 1.5 0 0 0 81.717 26.175C81.707 26.176 80.666 26.295 78.981 26.295 75.975 26.295 71.384 25.932 66.582 24.204 58.845 21.418 50.582 11.965 50.5 11.87 50.201 11.526 49.759 11.358 49.308 11.353A1.5 1.5 0 0 0 48.161 11.96C48.091 12.055 41.019 21.526 33.378 24.075 27.804 25.933 22.521 26.211 19.868 26.211 18.848 26.211 18.248 26.169 18.219 26.167A1.48 1.48 0 0 0 17.059 26.593 1.5 1.5 0 0 0 16.612 27.744C16.665 28.731 17.952 52.026 20.712 61.367 26.223 80.021 47.801 90.594 48.717 91.035A1.5 1.5 0 0 0 49.886 91.09C50.67 90.801 69.198 83.757 77.754 61.479 81.49 51.745 83.315 28.753 83.39 27.779A1.5 1.5 0 0 0 82.932 26.583M74.951 60.405C67.727 79.214 52.594 86.656 49.43 88.034 45.972 86.222 28.24 76.27 23.586 60.518 21.334 52.894 20.05 34.746 19.702 29.211 22.488 29.199 28.23 28.952 34.325 26.921 41.022 24.687 47.024 18.099 49.446 15.166 52.137 18.019 58.856 24.61 65.565 27.025 70.774 28.9 75.736 29.294 78.98 29.294 79.45 29.294 79.875 29.285 80.249 29.273 79.745 34.866 77.961 52.565 74.951 60.405" fill="white"></path><path d="M49.666 20.447V52.238H73.599C74.91 45.956 75.848 38.186 76.4 32.831 73.267 32.648 68.92 32.065 64.38 30.431 58.862 28.444 53.463 24.058 49.666 20.447" fill="white"></path><path d="M26.943 59.639C30.731 72.458 44.527 81.344 49.48 84.18V52.152H25.442C25.881 55.095 26.382 57.738 26.943 59.639" fill="white"></path></g></svg></g></svg></g></svg></g><defs><mask></mask></defs><mask><g id="SvgjsG1438"><svg viewBox="0 0 395.52 113.43901060343977" height="113.43901060343977" width="395.52"><g><svg viewBox="0 0 542.0194183306471 155.45647892212918" height="113.43901060343977" width="395.52"><g transform="matrix(1,0,0,1,146.49941833064713,21.48494028518573)"><svg viewBox="0 0 395.52 112.48659835175772" height="112.48659835175772" width="395.52"><g id="SvgjsG1437"><svg viewBox="0 0 395.52 112.48659835175772" height="112.48659835175772" width="395.52" id="SvgjsSvg1436"><g><svg viewBox="0 0 395.52 69.66795986622073" height="69.66795986622073" width="395.52"><g transform="matrix(1,0,0,1,0,0)"><svg width="395.52" viewBox="4.5 -29 224.23 39.5" height="69.66795986622073" data-palette-color="url(#b25896f3-1ed6-4e46-a219-bd5d4d64733f)"><path d="M21.8-24.5L26.75-24.5 15.65-14.15 15.65-13.65 22-13.65Q23.45-13.65 24.48-12.63 25.5-11.6 25.5-10.15L25.5-10.15 25.5 0 21.5 0 21.5-10.5 8.5-10.5 8.5 0 4.5 0 4.5-24.5 8.5-24.5 8.5-11.15 21.8-24.5ZM50-3L50 0 36 0Q34.55 0 33.52-1.03 32.5-2.05 32.5-3.5L32.5-3.5 32.5-14Q32.5-15.45 33.52-16.48 34.55-17.5 36-17.5L36-17.5 46.5-17.5Q47.95-17.5 48.97-16.48 50-15.45 50-14L50-14 50-10.5 46.5-7 36.5-7 39.5-10 46.5-10 46.5-14.5 36-14.5 36-3 50-3ZM73-17.5L73 7Q73 8.45 71.97 9.47 70.95 10.5 69.5 10.5L69.5 10.5 55 10.5 58 7.5 69.5 7.5 69.5-2.5 67 0 59 0Q57.55 0 56.52-1.03 55.5-2.05 55.5-3.5L55.5-3.5 55.5-17.5 59-17.5 59-3 69.5-3 69.5-17.5 73-17.5ZM101.99-14L101.99 0 97.99 0 97.99-3 94.99 0 84.49 0Q83.09 0 82.04-1.05 80.99-2.1 80.99-3.5L80.99-3.5 80.99-21Q80.99-22.4 82.04-23.45 83.09-24.5 84.49-24.5L84.49-24.5 101.99-24.5 101.99-21 84.99-21 84.99-3.5 97.99-3.5 97.99-10.5 91.49-10.5 94.99-14 101.99-14ZM126.24-17.5L126.24 0 122.74 0 122.74-2.5 120.24 0 112.24 0Q110.79 0 109.77-1.03 108.74-2.05 108.74-3.5L108.74-3.5 108.74-17.5 112.24-17.5 112.24-3 122.74-3 122.74-17.5 126.24-17.5ZM149.99-14L149.99 0 146.49 0 146.49-2.55 143.49 0 135.99 0Q134.54 0 133.51-1.03 132.49-2.05 132.49-3.5L132.49-3.5 132.49-7Q132.49-8.45 133.51-9.47 134.54-10.5 135.99-10.5L135.99-10.5 145.99-10.5 142.99-7.55 135.99-7.55 135.99-3 146.49-3 146.49-14.5 132.49-14.5 135.49-17.5 146.49-17.5Q147.94-17.5 148.96-16.48 149.99-15.45 149.99-14L149.99-14ZM170.99-14L170.99-10.5 167.49-10.5 167.49-14.5 160.49-14.5 160.49 0 156.99 0 156.99-17.5 160.49-17.5 160.49-15 162.99-17.5 167.49-17.5Q168.94-17.5 169.96-16.48 170.99-15.45 170.99-14L170.99-14ZM193.98-29L193.98 0 190.48 0 190.48-2.5 187.98 0 179.98 0Q178.53 0 177.51-1.03 176.48-2.05 176.48-3.5L176.48-3.5 176.48-14Q176.48-15.45 177.51-16.48 178.53-17.5 179.98-17.5L179.98-17.5 190.48-17.5 190.48-25.5 193.98-29ZM179.98-3L190.48-3 190.48-17 187.98-14.5 179.98-14.5 179.98-3ZM204.98-24.5L204.98-20.5 201.48-20.5 201.48-24.5 204.98-24.5ZM204.98-18.5L204.98 0 201.48 0 201.48-15 204.98-18.5ZM228.73-14L228.73 0 225.23 0 225.23-2.55 222.23 0 214.73 0Q213.28 0 212.25-1.03 211.23-2.05 211.23-3.5L211.23-3.5 211.23-7Q211.23-8.45 212.25-9.47 213.28-10.5 214.73-10.5L214.73-10.5 224.73-10.5 221.73-7.55 214.73-7.55 214.73-3 225.23-3 225.23-14.5 211.23-14.5 214.23-17.5 225.23-17.5Q226.68-17.5 227.7-16.48 228.73-15.45 228.73-14L228.73-14Z" opacity="1" transform="matrix(1,0,0,1,0,0)" fill="black" class="wordmark-text-0" id="SvgjsPath1435"></path></svg></g></svg></g><g transform="matrix(1,0,0,1,0,86.11489315959865)"><svg viewBox="0 0 395.52 26.371705192159066" height="26.371705192159066" width="395.52"><g transform="matrix(1,0,0,1,0,0)"><svg width="395.52" viewBox="4.6 -37.5 711.5799999999999 47.45" height="26.371705192159066" data-palette-color="#bcbcbc"><path d="M4.6 0L4.6-35 29.6-35 29.6-29.95 10.5-29.95 10.5-20.1 27.6-20.1 27.6-15.1 10.5-15.1 10.5-5.05 30.2-5.05 30.2 0 4.6 0ZM56.4 0L56.4-15Q56.4-18.15 54.75-19.93 53.1-21.7 50.15-21.7L50.15-21.7Q46.7-21.6 44.72-19.15 42.75-16.7 42.75-13.1L42.75-13.1 41.15-13.1Q41.15-18 42.52-21 43.9-24 46.42-25.38 48.95-26.75 52.4-26.75L52.4-26.75Q55.45-26.75 57.62-25.5 59.8-24.25 60.97-21.98 62.15-19.7 62.15-16.5L62.15-16.5 62.15 0 56.4 0ZM75.75 0L75.75-15Q75.75-18.15 74.07-19.93 72.4-21.7 69.45-21.7L69.45-21.7Q66.05-21.6 64.1-19.15 62.15-16.7 62.15-13.1L62.15-13.1 60.5-13.1Q60.5-18 61.87-21 63.25-24 65.77-25.38 68.3-26.75 71.75-26.75L71.75-26.75Q74.8-26.75 76.97-25.5 79.15-24.25 80.32-21.98 81.5-19.7 81.5-16.5L81.5-16.5 81.5 0 75.75 0ZM37.05 0L37.05-26.55 42.75-26.55 42.75 0 37.05 0ZM104.5-26.75L104.5-26.75Q108.3-26.75 111.15-25.05 114-23.35 115.6-20.3 117.2-17.25 117.2-13.2L117.2-13.2Q117.2-9.25 115.62-6.23 114.05-3.2 111.22-1.5 108.4 0.2 104.6 0.2L104.6 0.2Q100.95 0.2 98.37-1.4 95.8-3 94.45-6.03 93.1-9.05 93.1-13.2L93.1-13.2Q93.1-17.5 94.45-20.53 95.8-23.55 98.37-25.15 100.95-26.75 104.5-26.75ZM103.3-22.2L103.3-22.2Q100.95-22.2 99.1-21.05 97.25-19.9 96.22-17.93 95.2-15.95 95.2-13.35L95.2-13.35Q95.2-10.75 96.22-8.72 97.25-6.7 99.1-5.58 100.95-4.45 103.3-4.45L103.3-4.45Q105.7-4.45 107.52-5.6 109.35-6.75 110.37-8.75 111.4-10.75 111.4-13.35L111.4-13.35Q111.4-15.9 110.37-17.9 109.35-19.9 107.52-21.05 105.7-22.2 103.3-22.2ZM89.45 9.7L89.45-26.55 95.2-26.55 95.2 9.7 89.45 9.7ZM134.59-26.75L134.59-26.75Q138.69-26.75 141.82-25.05 144.94-23.35 146.69-20.33 148.44-17.3 148.44-13.3L148.44-13.3Q148.44-9.3 146.69-6.25 144.94-3.2 141.82-1.5 138.69 0.2 134.59 0.2L134.59 0.2Q130.49 0.2 127.34-1.5 124.19-3.2 122.44-6.25 120.69-9.3 120.69-13.3L120.69-13.3Q120.69-17.3 122.44-20.33 124.19-23.35 127.34-25.05 130.49-26.75 134.59-26.75ZM134.59-22.1L134.59-22.1Q132.19-22.1 130.34-20.98 128.49-19.85 127.47-17.85 126.44-15.85 126.44-13.25L126.44-13.25Q126.44-10.6 127.47-8.6 128.49-6.6 130.34-5.48 132.19-4.35 134.59-4.35L134.59-4.35Q136.99-4.35 138.82-5.48 140.64-6.6 141.67-8.6 142.69-10.6 142.69-13.25L142.69-13.25Q142.69-15.85 141.67-17.85 140.64-19.85 138.82-20.98 136.99-22.1 134.59-22.1ZM160.04 0L150.24-26.55 156.14-26.55 163.04-5.3 169.74-26.55 175.69-26.55 182.44-5.3 189.24-26.55 195.09-26.55 185.39 0 179.44 0 172.69-20.1 165.94 0 160.04 0ZM201.24-15.2L217.49-15.2Q217.39-17.45 216.46-19.03 215.54-20.6 213.89-21.48 212.24-22.35 210.09-22.35L210.09-22.35Q207.69-22.35 205.91-21.25 204.14-20.15 203.14-18.18 202.14-16.2 202.14-13.55L202.14-13.55Q202.14-10.7 203.21-8.6 204.29-6.5 206.21-5.35 208.14-4.2 210.64-4.2L210.64-4.2Q215.09-4.2 218.14-7.35L218.14-7.35 221.19-4.3Q219.24-2.15 216.44-0.98 213.64 0.2 210.19 0.2L210.19 0.2Q206.09 0.2 203.04-1.5 199.99-3.2 198.29-6.23 196.59-9.25 196.59-13.25L196.59-13.25Q196.59-17.25 198.29-20.28 199.99-23.3 203.04-25 206.09-26.7 210.04-26.75L210.04-26.75Q214.74-26.75 217.59-24.83 220.44-22.9 221.64-19.4 222.84-15.9 222.49-11.1L222.49-11.1 201.24-11.1 201.24-15.2ZM243.44-26.75L243.44-21.55Q240.59-21.7 238.51-20.58 236.44-19.45 235.31-17.45 234.19-15.45 234.19-12.85L234.19-12.85 232.59-13.05Q232.59-17.5 233.89-20.55 235.19-23.6 237.64-25.18 240.09-26.75 243.44-26.75L243.44-26.75ZM228.49 0L228.49-26.55 234.24-26.55 234.24 0 228.49 0ZM248.18 0L248.18-26.55 253.88-26.55 253.88 0 248.18 0ZM251.03-37.5L251.03-37.5Q252.48-37.5 253.43-36.55 254.38-35.6 254.38-34.15L254.38-34.15Q254.38-32.75 253.43-31.78 252.48-30.8 251.03-30.8L251.03-30.8Q249.63-30.8 248.66-31.78 247.68-32.75 247.68-34.15L247.68-34.15Q247.68-35.6 248.66-36.55 249.63-37.5 251.03-37.5ZM282.08 0L282.08-15Q282.08-18.1 280.38-19.88 278.68-21.65 275.68-21.65L275.68-21.65Q272.13-21.6 270.11-19.15 268.08-16.7 268.08-13.05L268.08-13.05 266.48-13.05Q266.48-18 267.88-21 269.28-24 271.86-25.38 274.43-26.75 277.93-26.75L277.93-26.75Q281.03-26.75 283.26-25.5 285.48-24.25 286.66-21.98 287.83-19.7 287.83-16.5L287.83-16.5 287.83 0 282.08 0ZM262.38 0L262.38-26.55 268.13-26.55 268.13 0 262.38 0ZM319.53-26.55L319.53-2.65Q319.53 1.2 317.83 4 316.13 6.8 313.03 8.33 309.93 9.85 305.73 9.85L305.73 9.85Q302.63 9.85 299.88 8.93 297.13 8 294.68 6.35L294.68 6.35 297.13 2.4Q299.03 3.8 301.03 4.58 303.03 5.35 305.48 5.35L305.48 5.35Q308.03 5.35 309.9 4.38 311.78 3.4 312.8 1.65 313.83-0.1 313.83-2.5L313.83-2.5 313.83-26.55 319.53-26.55ZM304.83-26.75L304.83-26.75Q308.33-26.8 310.8-25.28 313.28-23.75 314.58-20.9 315.88-18.05 315.83-14.05L315.83-14.05Q315.88-10.05 314.6-7.18 313.33-4.3 310.9-2.78 308.48-1.25 305.03-1.25L305.03-1.25Q301.43-1.25 298.73-2.88 296.03-4.5 294.53-7.4 293.03-10.3 293.03-14.1L293.03-14.1Q293.03-17.85 294.5-20.68 295.98-23.5 298.65-25.13 301.33-26.75 304.83-26.75ZM306.18-22.35L306.18-22.35Q303.93-22.35 302.18-21.28 300.43-20.2 299.45-18.3 298.48-16.4 298.43-13.95L298.43-13.95Q298.48-11.5 299.45-9.6 300.43-7.7 302.15-6.63 303.88-5.55 306.18-5.55L306.18-5.55Q308.43-5.55 310.15-6.63 311.88-7.7 312.85-9.6 313.83-11.5 313.83-13.95L313.83-13.95Q313.83-16.45 312.85-18.32 311.88-20.2 310.15-21.28 308.43-22.35 306.18-22.35ZM341.37-35L355.72-35Q359.67-35 362.97-33.7 366.27-32.4 368.7-30.05 371.12-27.7 372.47-24.5 373.82-21.3 373.82-17.5L373.82-17.5Q373.82-13.7 372.47-10.53 371.12-7.35 368.67-4.98 366.22-2.6 362.87-1.3 359.52 0 355.57 0L355.57 0 341.37 0 341.37-35ZM347.27-5.05L355.87-5.05Q358.42-5.05 360.6-5.95 362.77-6.85 364.4-8.53 366.02-10.2 366.95-12.48 367.87-14.75 367.87-17.45L367.87-17.45Q367.87-20.2 366.92-22.48 365.97-24.75 364.32-26.45 362.67-28.15 360.45-29.05 358.22-29.95 355.62-29.95L355.62-29.95 347.27-29.95 347.27-5.05ZM379.77 0L379.77-26.55 385.47-26.55 385.47 0 379.77 0ZM382.62-37.5L382.62-37.5Q384.07-37.5 385.02-36.55 385.97-35.6 385.97-34.15L385.97-34.15Q385.97-32.75 385.02-31.78 384.07-30.8 382.62-30.8L382.62-30.8Q381.22-30.8 380.25-31.78 379.27-32.75 379.27-34.15L379.27-34.15Q379.27-35.6 380.25-36.55 381.22-37.5 382.62-37.5ZM417.97-26.55L417.97-2.65Q417.97 1.2 416.27 4 414.57 6.8 411.47 8.33 408.37 9.85 404.17 9.85L404.17 9.85Q401.07 9.85 398.32 8.93 395.57 8 393.12 6.35L393.12 6.35 395.57 2.4Q397.47 3.8 399.47 4.58 401.47 5.35 403.92 5.35L403.92 5.35Q406.47 5.35 408.34 4.38 410.22 3.4 411.24 1.65 412.27-0.1 412.27-2.5L412.27-2.5 412.27-26.55 417.97-26.55ZM403.27-26.75L403.27-26.75Q406.77-26.8 409.24-25.28 411.72-23.75 413.02-20.9 414.32-18.05 414.27-14.05L414.27-14.05Q414.32-10.05 413.04-7.18 411.77-4.3 409.34-2.78 406.92-1.25 403.47-1.25L403.47-1.25Q399.87-1.25 397.17-2.88 394.47-4.5 392.97-7.4 391.47-10.3 391.47-14.1L391.47-14.1Q391.47-17.85 392.94-20.68 394.42-23.5 397.09-25.13 399.77-26.75 403.27-26.75ZM404.62-22.35L404.62-22.35Q402.37-22.35 400.62-21.28 398.87-20.2 397.89-18.3 396.92-16.4 396.87-13.95L396.87-13.95Q396.92-11.5 397.89-9.6 398.87-7.7 400.59-6.63 402.32-5.55 404.62-5.55L404.62-5.55Q406.87-5.55 408.59-6.63 410.32-7.7 411.29-9.6 412.27-11.5 412.27-13.95L412.27-13.95Q412.27-16.45 411.29-18.32 410.32-20.2 408.59-21.28 406.87-22.35 404.62-22.35ZM425.97 0L425.97-26.55 431.67-26.55 431.67 0 425.97 0ZM428.82-37.5L428.82-37.5Q430.27-37.5 431.22-36.55 432.17-35.6 432.17-34.15L432.17-34.15Q432.17-32.75 431.22-31.78 430.27-30.8 428.82-30.8L428.82-30.8Q427.42-30.8 426.44-31.78 425.47-32.75 425.47-34.15L425.47-34.15Q425.47-35.6 426.44-36.55 427.42-37.5 428.82-37.5ZM446.91-32.85L446.91-8.4Q446.91-6.25 447.66-5.48 448.41-4.7 449.76-4.7L449.76-4.7Q450.66-4.7 451.64-5 452.61-5.3 453.76-5.9L453.76-5.9 455.21-1.75Q453.66-0.8 452.01-0.28 450.36 0.25 448.66 0.25L448.66 0.25Q446.66 0.25 444.96-0.53 443.26-1.3 442.24-3 441.21-4.7 441.21-7.4L441.21-7.4 441.21-32.85 446.91-32.85ZM437.46-21.5L437.46-25.6 454.76-25.6 454.76-21.5 437.46-21.5ZM477.16-11.85L469.21-11.85Q466.41-11.85 465.06-11 463.71-10.15 463.71-8.2L463.71-8.2Q463.71-6.35 465.09-5.25 466.46-4.15 468.86-4.15L468.86-4.15Q471.01-4.15 472.71-4.9 474.41-5.65 475.41-6.93 476.41-8.2 476.46-9.8L476.46-9.8 477.56-4.95Q476.31-2.35 473.76-1.05 471.21 0.25 467.66 0.25L467.66 0.25Q464.81 0.25 462.71-0.85 460.61-1.95 459.46-3.83 458.31-5.7 458.31-8L458.31-8Q458.31-11.6 460.94-13.75 463.56-15.9 468.36-15.95L468.36-15.95 477.16-15.95 477.16-11.85ZM476.46 0L476.41-16.85Q476.41-19.45 474.81-20.9 473.21-22.35 470.06-22.35L470.06-22.35Q468.16-22.35 466.19-21.65 464.21-20.95 462.21-19.6L462.21-19.6 459.86-23.3Q461.71-24.45 463.36-25.2 465.01-25.95 466.89-26.35 468.76-26.75 471.31-26.75L471.31-26.75Q476.46-26.75 479.24-24.28 482.01-21.8 482.06-17.45L482.06-17.45 482.11 0 476.46 0ZM490.06 0L490.06-37.1 495.81-37.1 495.81 0 490.06 0ZM542.15-31.85L539.7-26.9Q537.8-28.1 535.95-28.8 534.1-29.5 532.45-29.8 530.8-30.1 529.45-30.1L529.45-30.1Q526.85-30.1 525.3-29.1 523.75-28.1 523.75-26.2L523.75-26.2Q523.75-24.5 524.78-23.43 525.8-22.35 527.48-21.68 529.15-21 531.18-20.4 533.2-19.8 535.2-19.07 537.2-18.35 538.9-17.2 540.6-16.05 541.6-14.28 542.6-12.5 542.6-9.8L542.6-9.8Q542.6-6.7 540.9-4.42 539.2-2.15 536.23-0.9 533.25 0.35 529.4 0.35L529.4 0.35Q526.65 0.35 524.05-0.38 521.45-1.1 519.18-2.35 516.9-3.6 515.1-5.25L515.1-5.25 517.65-10.1Q519.45-8.45 521.48-7.3 523.5-6.15 525.58-5.55 527.65-4.95 529.5-4.95L529.5-4.95Q532.6-4.95 534.33-6.15 536.05-7.35 536.05-9.5L536.05-9.5Q536.05-11.25 535.03-12.33 534-13.4 532.33-14.1 530.65-14.8 528.63-15.35 526.6-15.9 524.58-16.63 522.55-17.35 520.88-18.45 519.2-19.55 518.18-21.3 517.15-23.05 517.15-25.75L517.15-25.75Q517.15-28.7 518.75-30.88 520.35-33.05 523.23-34.25 526.1-35.45 529.9-35.45L529.9-35.45Q533.3-35.45 536.5-34.45 539.7-33.45 542.15-31.85L542.15-31.85ZM551.3-15.2L567.55-15.2Q567.45-17.45 566.52-19.03 565.6-20.6 563.95-21.48 562.3-22.35 560.15-22.35L560.15-22.35Q557.75-22.35 555.98-21.25 554.2-20.15 553.2-18.18 552.2-16.2 552.2-13.55L552.2-13.55Q552.2-10.7 553.27-8.6 554.35-6.5 556.27-5.35 558.2-4.2 560.7-4.2L560.7-4.2Q565.15-4.2 568.2-7.35L568.2-7.35 571.25-4.3Q569.3-2.15 566.5-0.98 563.7 0.2 560.25 0.2L560.25 0.2Q556.15 0.2 553.1-1.5 550.05-3.2 548.35-6.23 546.65-9.25 546.65-13.25L546.65-13.25Q546.65-17.25 548.35-20.28 550.05-23.3 553.1-25 556.15-26.7 560.1-26.75L560.1-26.75Q564.8-26.75 567.65-24.83 570.5-22.9 571.7-19.4 572.9-15.9 572.55-11.1L572.55-11.1 551.3-11.1 551.3-15.2ZM600.45-22.65L597.3-18.95Q595.9-20.4 594-21.2 592.1-22 589.7-22L589.7-22Q587.4-22 585.6-20.9 583.8-19.8 582.8-17.82 581.8-15.85 581.8-13.25L581.8-13.25Q581.8-10.65 582.8-8.68 583.8-6.7 585.6-5.58 587.4-4.45 589.7-4.45L589.7-4.45Q592.2-4.45 594.2-5.28 596.2-6.1 597.55-7.7L597.55-7.7 600.75-4.55Q598.95-2.3 596.07-1.05 593.2 0.2 589.45 0.2L589.45 0.2Q585.5 0.2 582.47-1.5 579.45-3.2 577.75-6.23 576.05-9.25 576.05-13.25L576.05-13.25Q576.05-17.25 577.75-20.28 579.45-23.3 582.47-25.03 585.5-26.75 589.45-26.75L589.45-26.75Q593.05-26.75 595.82-25.68 598.6-24.6 600.45-22.65L600.45-22.65ZM611.64-26.55L611.64-11.55Q611.64-8.45 613.29-6.68 614.94-4.9 617.84-4.9L617.84-4.9Q621.29-5 623.22-7.45 625.14-9.9 625.14-13.5L625.14-13.5 626.69-13.5Q626.69-8.6 625.34-5.6 623.99-2.6 621.52-1.23 619.04 0.15 615.64 0.2L615.64 0.2Q612.59 0.2 610.42-1.05 608.24-2.3 607.07-4.6 605.89-6.9 605.89-10.05L605.89-10.05 605.89-26.55 611.64-26.55ZM625.14 0L625.14-26.55 630.89-26.55 630.89 0 625.14 0ZM654.34-26.75L654.34-21.55Q651.49-21.7 649.42-20.58 647.34-19.45 646.22-17.45 645.09-15.45 645.09-12.85L645.09-12.85 643.49-13.05Q643.49-17.5 644.79-20.55 646.09-23.6 648.54-25.18 650.99-26.75 654.34-26.75L654.34-26.75ZM639.39 0L639.39-26.55 645.14-26.55 645.14 0 639.39 0ZM659.09 0L659.09-26.55 664.79-26.55 664.79 0 659.09 0ZM661.94-37.5L661.94-37.5Q663.39-37.5 664.34-36.55 665.29-35.6 665.29-34.15L665.29-34.15Q665.29-32.75 664.34-31.78 663.39-30.8 661.94-30.8L661.94-30.8Q660.54-30.8 659.56-31.78 658.59-32.75 658.59-34.15L658.59-34.15Q658.59-35.6 659.56-36.55 660.54-37.5 661.94-37.5ZM680.04-32.85L680.04-8.4Q680.04-6.25 680.79-5.48 681.54-4.7 682.89-4.7L682.89-4.7Q683.79-4.7 684.76-5 685.74-5.3 686.89-5.9L686.89-5.9 688.34-1.75Q686.79-0.8 685.14-0.28 683.49 0.25 681.79 0.25L681.79 0.25Q679.79 0.25 678.09-0.53 676.39-1.3 675.36-3 674.34-4.7 674.34-7.4L674.34-7.4 674.34-32.85 680.04-32.85ZM670.59-21.5L670.59-25.6 687.89-25.6 687.89-21.5 670.59-21.5ZM716.18-26.55L704.08 3.75Q702.83 6.8 700.63 8.38 698.43 9.95 695.43 9.95L695.43 9.95Q693.63 9.95 692.16 9.4 690.68 8.85 689.28 7.75L689.28 7.75 691.73 3.5Q693.53 4.8 695.18 4.8L695.18 4.8Q696.48 4.8 697.53 4.05 698.58 3.3 699.23 1.75L699.23 1.75 700.13-0.35 689.13-26.55 695.08-26.55 703.03-6.05 710.43-26.55 716.18-26.55Z" opacity="1" transform="matrix(1,0,0,1,0,0)" fill="black" class="slogan-text-1" id="SvgjsPath1434"></path></svg></g></svg></g></svg></g></svg></g><g><svg viewBox="0 0 130.0524850372692 155.45647892212918" height="155.45647892212918" width="130.0524850372692"><g><svg xmlns="http://www.w3.org/2000/svg" xmlns:xlink="http://www.w3.org/1999/xlink" version="1.1" x="0" y="0" viewBox="16.609829953919423 11.353 66.78443125211547 79.82986658267758" enable-background="new 0 0 100 100" xml:space="preserve" height="155.45647892212918" width="130.0524850372692" class="icon-icon-0" data-fill-palette-color="accent" id="SvgjsSvg1433"><g fill="black"><path d="M82.932 26.583A1.5 1.5 0 0 0 81.717 26.175C81.707 26.176 80.666 26.295 78.981 26.295 75.975 26.295 71.384 25.932 66.582 24.204 58.845 21.418 50.582 11.965 50.5 11.87 50.201 11.526 49.759 11.358 49.308 11.353A1.5 1.5 0 0 0 48.161 11.96C48.091 12.055 41.019 21.526 33.378 24.075 27.804 25.933 22.521 26.211 19.868 26.211 18.848 26.211 18.248 26.169 18.219 26.167A1.48 1.48 0 0 0 17.059 26.593 1.5 1.5 0 0 0 16.612 27.744C16.665 28.731 17.952 52.026 20.712 61.367 26.223 80.021 47.801 90.594 48.717 91.035A1.5 1.5 0 0 0 49.886 91.09C50.67 90.801 69.198 83.757 77.754 61.479 81.49 51.745 83.315 28.753 83.39 27.779A1.5 1.5 0 0 0 82.932 26.583M74.951 60.405C67.727 79.214 52.594 86.656 49.43 88.034 45.972 86.222 28.24 76.27 23.586 60.518 21.334 52.894 20.05 34.746 19.702 29.211 22.488 29.199 28.23 28.952 34.325 26.921 41.022 24.687 47.024 18.099 49.446 15.166 52.137 18.019 58.856 24.61 65.565 27.025 70.774 28.9 75.736 29.294 78.98 29.294 79.45 29.294 79.875 29.285 80.249 29.273 79.745 34.866 77.961 52.565 74.951 60.405" fill="black"></path><path d="M49.666 20.447V52.238H73.599C74.91 45.956 75.848 38.186 76.4 32.831 73.267 32.648 68.92 32.065 64.38 30.431 58.862 28.444 53.463 24.058 49.666 20.447" fill="black"></path><path d="M26.943 59.639C30.731 72.458 44.527 81.344 49.48 84.18V52.152H25.442C25.881 55.095 26.382 57.738 26.943 59.639" fill="black"></path></g></svg></g></svg></g></svg></g><defs><mask></mask></defs></svg><rect width="395.52" height="113.43901060343977" fill="black" stroke="none" visibility="hidden"></rect></g></mask></svg><rect width="395.52" height="113.43901060343977" fill="black" stroke="none" visibility="hidden"></rect></g></mask><linearGradient x1="0" x2="1" y1="0.5" y2="0.5" id="88738a40-8709-4ce3-935e-5dfe599f9bab"><stop stop-color="#f00b51" offset="0"></stop><stop stop-color="#730062" offset="1"></stop></linearGradient><rect width="395.52" height="113.43901060343977" fill="url(#88738a40-8709-4ce3-935e-5dfe599f9bab)" mask="url(#6190589a-d2a8-4798-b220-1647492f5e16)" data-fill-palette-color="accent"></rect></svg><rect width="395.52" height="113.43901060343977" fill="none" stroke="none" visibility="hidden"></rect></g></svg></g></svg>