<?xml version="1.0" encoding="utf-8"?>
<!-- Generator: Adobe Illustrator 27.5.0, SVG Export Plug-In . SVG Version: 6.00 Build 0)  -->
<svg version="1.1" xmlns="http://www.w3.org/2000/svg" xmlns:xlink="http://www.w3.org/1999/xlink" x="0px" y="0px"
	 viewBox="0 0 750 500" style="enable-background:new 0 0 750 500;" xml:space="preserve">
<g id="BACKGROUND">
	<rect style="fill:#FFFFFF;" width="750" height="500"/>
</g>
<g id="OBJECTS">
	<g>
		<g>
			<g>
				<g>
					<path style="fill:#DBF6FF;" d="M521.377,36.97c10.895-3.488,22.524-4.164,33.944-3.502
						c16.407,0.951,33.459,5.035,45.522,16.195c7.602,7.033,12.644,16.325,18.755,24.687c17.727,24.26,45.133,41.618,57.093,69.181
						c10.222,23.557,6.38,53.184-11.213,71.89c-17.592,18.707-48.568,24.019-70.347,10.413
						c-20.909-13.062-30.15-39.064-49.251-54.652c-13.653-11.142-31.286-16.113-46.119-25.628
						c-15.179-9.738-27.527-25.045-30.318-42.863c-2.316-14.789,3.008-30.857,14.539-40.587
						C495.263,52.588,507.13,41.531,521.377,36.97z"/>
					<path style="fill:#BCDFEB;" d="M616.135,218.03c-18.857,3.025-37.295-1.851-56.13-5.324
						c-18.089-3.335-36.109-9.596-50.471-21.418c-6.579-5.415-12.409-12.145-14.991-20.266c-3.683-11.586-0.321-24.095-0.355-36.252
						c-0.039-14.267-3.594-28.016-13.501-38.538c-6.03-6.404-13.039-12.02-17.769-19.436c-9.859-15.458-2.226-36.154,13.212-44.882
						c14.063-7.95,31.956-4.804,46.564,2.094c14.608,6.897,27.432,17.174,42.101,23.941c16.082,7.419,33.674,10.327,51.412,11.998
						c13.564,1.278,27.379-0.278,38.446,7.668c7.918,5.685,13.515,14.217,16.766,23.406c6.152,17.386,4.915,37.826,2.078,55.777
						c-1.901,12.026-5.722,23.934-12.696,33.914c-8.56,12.252-21.649,21.07-35.972,25.339
						C621.92,216.918,619.022,217.567,616.135,218.03z"/>
					<path style="fill:#DBF6FF;" d="M586.447,449.599H147.888c-33.114-25.275-56.121-61.332-62.336-102.523
						c-2.585-17.129-1.114-37.412,12.845-47.67c21.467-15.775,53.682,4.115,77.934-6.908c15.623-7.101,23.322-25.549,23.483-42.709
						c0.162-17.16-5.636-33.723-9.977-50.326c-4.341-16.603-7.202-34.531-1.337-50.658c5.865-16.128,23.133-29.213,39.751-24.932
						c14.241,3.669,23.278,18.097,36.925,23.578c14.205,5.705,30.694,0.515,43.302-8.166c12.608-8.68,22.643-20.561,34.428-30.33
						c20.688-17.15,48.015-27.66,74.587-23.656c26.573,4.004,51.158,24.594,55.307,51.144c3.393,21.719-5.742,46.815,7.57,64.309
						c15.009,19.725,46.403,14.188,68.101,26.168c17.663,9.753,27.088,32.354,21.585,51.767
						c-5.619,19.823-24.714,36.458-21.604,56.826c2.229,14.602,15.174,24.688,24.293,36.308
						C590.27,394.153,598.198,423.758,586.447,449.599z"/>
					<path style="fill:#BCDFEB;" d="M565.859,449.599h-375.74c-11.426-10.415-24.248-20.005-30.738-34.038
						c-6.49-14.032-6.473-32.263,4.201-43.447c12.883-13.498,34.417-11.656,52.534-16.122c20.892-5.15,39.893-21.93,42.568-43.281
						c3.455-27.565-19.635-52.749-18.195-80.492c1.135-21.869,19.696-41.521,41.465-43.9c14.715-1.609,29.98,3.785,44.196-0.344
						c13.18-3.827,22.685-15.008,34.14-22.567c13.443-8.871,30.604-12.727,46.095-8.316c15.491,4.411,28.601,17.809,30.688,33.78
						c2.219,16.983-7.021,36.274,2.779,50.32c7.3,10.462,21.864,12.483,34.615,12.075c12.751-0.408,26.349-2.119,37.556,3.977
						c10.421,5.669,16.619,17.4,17.781,29.206c1.162,11.806-2.132,23.661-6.994,34.482c-4.249,9.456-9.723,18.4-12.919,28.262
						c-3.196,9.862-3.856,21.19,1.351,30.155c5.48,9.437,16.111,14.339,24.777,20.972
						C551.334,412.041,564.711,430.348,565.859,449.599z"/>
					<g>
						<polygon style="fill:#FAFAFA;" points="534.412,84.449 556.114,139.626 602.354,113.527 						"/>
						<polygon style="fill:#D9D9D9;" points="534.412,84.449 577.061,127.803 588.674,121.248 						"/>
						<polygon style="fill:#D9D9D9;" points="588.674,121.248 580.586,141.259 577.061,127.803 						"/>
						<polygon style="fill:#B0B0B0;" points="580.586,141.259 570.606,131.446 577.061,127.803 						"/>
					</g>
					<path style="fill:none;stroke:#52BFDE;stroke-width:2.5409;stroke-miterlimit:10;stroke-dasharray:7.6228;" d="
						M250.538,432.481c-48.936-12.894-91.614-47.818-113.934-93.236c-9.211-18.742-15.12-39.554-13.735-60.391
						c1.385-20.837,10.719-41.662,27.447-54.164c16.728-12.502,41.107-15.207,58.798-4.109
						c17.093,10.723,25.234,31.285,40.046,44.988c17.702,16.377,45.793,21.158,67.134,9.927
						c21.341-11.231,33.34-38.526,25.552-61.35c-7.207-21.123-27.58-34.257-45.278-47.855
						c-17.698-13.598-35.296-32.716-32.765-54.891c2.176-19.058,18.962-33.382,36.645-40.816
						c33.854-14.232,77.505-7.905,100.576,20.667c24.822,30.741,20.049,75.585,8.855,113.477
						c-11.194,37.892-27.702,76.249-22.132,115.365c4.628,32.501,24.782,61.727,51.511,80.786
						c26.729,19.059,59.529,28.5,92.296,30.51c32.698,2.006,67.799-4.069,91.985-26.165c24.186-22.096,32.357-63.305,10.966-88.117
						c-11.071-12.842-27.6-19.355-43.494-25.258c-15.894-5.903-32.478-12.079-43.997-24.52
						c-11.519-12.441-15.983-33.225-5.149-46.267c12.549-15.107,45.979-16.76,57.802-32.442c8.434-11.187-1.419-32.738-10.994-43.32
						"/>
					<g>
						<path style="fill:#429C9B;" d="M223.311,374.591c-21.146-13.888-39.999-31.259-55.567-51.201
							c-6.525-8.358-12.523-17.248-16.481-27.086c-3.958-9.837-5.798-20.724-3.853-31.148c1.395-7.476,5.461-15.257,12.68-17.648
							c5.64-1.867,12.011,0.076,16.708,3.713c4.697,3.637,7.993,8.763,10.909,13.94c11.251,19.973,18.157,42.031,26.477,63.392
							c3.993,10.251,8.352,20.391,13.651,30.042c2.633,4.795,5.489,9.472,8.643,13.944c2.857,4.051,8.051,8.413,9.847,12.787
							C242.215,388.592,227.146,377.11,223.311,374.591z"/>
						<path style="fill:none;stroke:#57BABD;stroke-width:2.0199;stroke-miterlimit:10;" d="M163.773,258.849
							c10.339,43.822,34.63,84.241,68.474,113.938"/>
					</g>
					<g>
						<path style="fill:#429C9B;" d="M504.811,374.809c18.16-8.815,34.864-20.622,49.233-34.801
							c6.023-5.943,11.682-12.361,15.826-19.738c4.144-7.377,6.718-15.802,6.252-24.251c-0.335-6.059-2.752-12.634-8.219-15.268
							c-4.271-2.057-9.512-1.175-13.603,1.22c-4.091,2.395-7.226,6.113-10.065,9.909c-10.956,14.648-18.689,31.392-27.469,47.439
							c-4.213,7.701-8.706,15.276-13.891,22.369c-2.576,3.524-5.317,6.931-8.273,10.145c-2.677,2.912-7.236,5.829-9.106,9.106
							C488.414,383.945,501.518,376.408,504.811,374.809z"/>
						<path style="fill:none;stroke:#57BABD;stroke-width:1.6117;stroke-miterlimit:10;" d="M563.824,289.346
							c-12.687,33.613-36.064,63.098-65.897,83.117"/>
					</g>
					<g>
						<path style="fill:none;stroke:#61A9B8;stroke-width:2.5409;stroke-miterlimit:10;" d="M232.448,345.901
							c11.368-56.072-0.75-116.527-32.85-163.886"/>
						<path style="fill:#61A9B8;" d="M202.963,187.559c-9.163-2.999-17.18-9.373-22.167-17.625
							c-4.987-8.252-6.903-18.313-5.298-27.82c9.723,2.607,18.856,8.647,24.035,17.279
							C204.711,168.025,205.24,177.754,202.963,187.559z"/>
						<g>
							<g>
								<path style="fill:#61A9B8;" d="M213.195,205.711c-2.099-7.143-1.549-15.032,1.521-21.814
									c3.07-6.782,8.634-12.402,15.386-15.538c2.594,7.327,2.744,15.78-0.484,22.851
									C226.39,198.28,220.43,202.871,213.195,205.711z"/>
								<path style="fill:#61A9B8;" d="M213.843,205.035c-5.607-4.897-13.001-7.701-20.446-7.754
									c-7.445-0.052-14.878,2.648-20.553,7.466c5.568,5.424,13.181,9.1,20.954,9.129
									C201.57,213.906,208.235,210.416,213.843,205.035z"/>
							</g>
							<g>
								<path style="fill:#61A9B8;" d="M224.743,234.513c-0.822-7.399,1.094-15.072,5.299-21.215
									c4.205-6.143,10.663-10.707,17.858-12.619c1.277,7.667-0.048,16.017-4.458,22.417
									C239.031,229.495,232.363,232.978,224.743,234.513z"/>
								<path style="fill:#61A9B8;" d="M225.5,233.96c-4.668-5.799-11.461-9.849-18.782-11.198
									c-7.322-1.349-15.111,0.014-21.539,3.77c4.537,6.311,11.393,11.258,19.042,12.641
									C211.868,240.557,219.039,238.282,225.5,233.96z"/>
							</g>
							<g>
								<path style="fill:#61A9B8;" d="M232.388,263.324c-0.176-7.443,2.401-14.919,7.124-20.674
									c4.723-5.755,11.554-9.739,18.888-11.018c0.606,7.749-1.441,15.952-6.392,21.944
									C247.058,259.568,240.112,262.457,232.388,263.324z"/>
								<path style="fill:#61A9B8;" d="M233.189,262.839c-4.146-6.184-10.56-10.809-17.737-12.789
									c-7.176-1.981-15.055-1.3-21.786,1.882c3.971,6.682,10.371,12.206,17.87,14.25
									C219.036,268.224,226.378,266.582,233.189,262.839z"/>
							</g>
							<g>
								<path style="fill:#61A9B8;" d="M236.813,295.027c0.983-7.379,4.689-14.365,10.249-19.316
									c5.56-4.951,12.927-7.826,20.37-7.95c-0.606,7.749-3.901,15.535-9.723,20.685
									C251.889,293.596,244.578,295.371,236.813,295.027z"/>
								<path style="fill:#61A9B8;" d="M237.68,294.672c-3.135-6.752-8.753-12.318-15.535-15.389
									c-6.782-3.072-14.67-3.623-21.814-1.526c2.885,7.217,8.349,13.669,15.44,16.853
									C222.862,297.794,230.369,297.312,237.68,294.672z"/>
							</g>
						</g>
					</g>
					<g>
						<path style="fill:none;stroke:#61A9B8;stroke-width:2.5409;stroke-miterlimit:10;" d="M497.207,365.233
							c-12.303-55.874-1.198-116.523,30.106-164.412"/>
						<path style="fill:#61A9B8;" d="M524.042,206.42c9.112-3.152,17.021-9.659,21.869-17.993
							c4.848-8.334,6.596-18.426,4.832-27.905c-9.678,2.769-18.709,8.961-23.742,17.678
							C521.967,186.918,521.601,196.654,524.042,206.42z"/>
						<g>
							<g>
								<path style="fill:#61A9B8;" d="M514.114,224.74c1.979-7.177,1.298-15.055-1.885-21.786
									c-3.183-6.73-8.84-12.256-15.643-15.279c-2.471,7.369-2.48,15.824,0.866,22.84
									C500.797,217.531,506.832,222.022,514.114,224.74z"/>
								<path style="fill:#61A9B8;" d="M513.455,224.075c5.525-4.99,12.871-7.918,20.314-8.094
									c7.443-0.177,14.92,2.398,20.675,7.121c-5.476,5.516-13.027,9.319-20.798,9.478
									C525.874,232.739,519.152,229.362,513.455,224.075z"/>
							</g>
							<g>
								<path style="fill:#61A9B8;" d="M503.049,253.731c0.699-7.412-1.346-15.051-5.653-21.124
									c-4.307-6.072-10.841-10.528-18.067-12.319c-1.149,7.687,0.315,16.014,4.832,22.339
									C488.679,248.953,495.404,252.324,503.049,253.731z"/>
								<path style="fill:#61A9B8;" d="M502.283,253.191c4.571-5.876,11.294-10.039,18.592-11.51
									c7.298-1.471,15.109-0.238,21.6,3.409c-4.431,6.386-11.204,11.447-18.828,12.958
									C516.023,259.559,508.815,257.404,502.283,253.191z"/>
							</g>
							<g>
								<path style="fill:#61A9B8;" d="M495.887,282.666c0.051-7.444-2.65-14.877-7.469-20.552
									c-4.819-5.675-11.715-9.545-19.07-10.701c-0.476,7.758,1.707,15.926,6.758,21.834
									C481.156,279.156,488.149,281.928,495.887,282.666z"/>
								<path style="fill:#61A9B8;" d="M495.077,282.194c4.042-6.252,10.378-10.984,17.521-13.084
									c7.142-2.1,15.031-1.552,21.814,1.517c-3.859,6.747-10.165,12.378-17.629,14.546
									C509.319,287.343,501.951,285.823,495.077,282.194z"/>
							</g>
							<g>
								<path style="fill:#61A9B8;" d="M491.992,314.439c-1.106-7.362-4.929-14.285-10.571-19.142
									c-5.642-4.857-13.056-7.609-20.501-7.608c0.735,7.738,4.161,15.467,10.067,20.519
									C476.895,313.26,484.234,314.912,491.992,314.439z"/>
								<path style="fill:#61A9B8;" d="M491.12,314.099c3.022-6.804,8.546-12.463,15.275-15.647
									c6.729-3.184,14.608-3.868,21.785-1.89c-2.764,7.265-8.119,13.807-15.156,17.108
									C505.988,316.972,498.473,316.616,491.12,314.099z"/>
							</g>
						</g>
					</g>
					<g>
						<path style="fill:#61A9B8;" d="M223.61,402.858c3.106-5.653,7.23-10.885,9.941-16.701
							c-7.229-9.18-15.903-17.429-24.998-24.661c-5.946-4.728-12.151-9.157-18.562-13.287c-5.881,4.678-11.762,9.357-17.643,14.035
							c1.03-8.164,1.622-15.269,2.477-23.012c-13.06-7.081-26.807-12.946-40.971-17.416c-3.265,5.262-6.049,10.846-10.44,15.355
							c0.068-6.03-0.51-12.326-1.331-18.723c-13.093-3.369-26.459-5.563-39.89-6.445c-0.045,5.424,0.273,10.841,0.898,16.221
							c3.509-1.056,6.227-4.017,9.944-4.574c-2.452,5.936-4.668,12.463-7.584,18.49c3.199,14.319,8.676,28.14,16.148,40.777
							c6.183-3.639,11.977-8.644,19.431-11.74c-1.298,11.394-1.32,23.314-2.303,34.838c3.926,4.27,8.12,8.293,12.581,12.012
							c7.852,6.546,16.467,12.135,25.594,16.715c1.851-7.061,3.767-14.096,8.351-20.028c5.399,10.261,11.25,19.404,16.149,29.545
							c20.43,5.801,42.175,6.991,63.041,2.993c3.454-0.662,6.35-6.19,7.423-9.539s0.866-6.969,0.382-10.452
							c-1.523-10.955-5.595-21.158-11.322-30.543C234.827,398.164,228.656,399.863,223.61,402.858z"/>
						<path style="fill:none;stroke:#85CCE0;stroke-width:2.5409;stroke-miterlimit:10;" d="M229.455,436.627
							c-48.03-28.247-91.944-63.48-129.93-104.246"/>
					</g>
					<g>
						<path style="fill:#61A9B8;" d="M507.41,414.167c-2.915-3.876-6.543-7.329-9.181-11.368c4.4-7.604,9.975-14.669,15.972-21.022
							c3.92-4.154,8.066-8.112,12.396-11.871c4.876,2.854,9.753,5.708,14.629,8.562c-1.638-5.966-2.837-11.191-4.3-16.862
							c8.964-6.665,18.569-12.497,28.634-17.335c2.992,3.568,5.659,7.426,9.409,10.313c-0.694-4.48-0.936-9.228-1.008-14.076
							c9.385-3.905,19.099-6.965,29-9.055c0.612,4.032,0.954,8.097,1.063,12.169c-2.724-0.411-5.063-2.325-7.889-2.342
							c2.458,4.156,4.804,8.777,7.618,12.952c-0.853,10.998-3.453,21.87-7.665,32.072c-4.99-2.049-9.836-5.155-15.715-6.663
							c2.182,8.341,3.471,17.211,5.433,25.683c-2.466,3.597-5.158,7.039-8.081,10.283c-5.145,5.71-10.96,10.789-17.264,15.172
							c-2.132-5.058-4.308-10.089-8.353-14.014c-2.923,8.213-6.301,15.642-8.865,23.713c-14.586,6.498-30.643,9.705-46.599,8.957
							c-2.641-0.124-5.387-3.929-6.543-6.307c-1.156-2.378-1.388-5.094-1.4-7.738c-0.036-8.316,1.906-16.344,5.166-23.941
							C498.561,411.871,503.335,412.477,507.41,414.167z"/>
						<path style="fill:none;stroke:#85CCE0;stroke-width:1.9105;stroke-miterlimit:10;" d="M506.665,439.924
							c32.731-26.15,61.653-57.06,85.573-91.455"/>
					</g>
					<g>
						<g>
							<path style="fill:#101439;" d="M503.162,449.599H224.554c-5.97,0-10.809-4.84-10.809-10.809V260.055
								c0-5.97,4.84-10.809,10.809-10.809h278.608c5.97,0,10.809,4.84,10.809,10.809V438.79
								C513.971,444.76,509.132,449.599,503.162,449.599z"/>
							
								<ellipse transform="matrix(0.2307 -0.973 0.973 0.2307 45.6977 756.6411)" style="fill:#1C2363;" cx="501.333" cy="349.422" rx="9.135" ry="9.135"/>
							<path style="fill:#1C2363;" d="M220.138,383.297L220.138,383.297c-1.597,0-2.892-1.295-2.892-2.893V318.44
								c0-1.598,1.295-2.893,2.892-2.893l0,0c1.598,0,2.893,1.295,2.893,2.893v61.964
								C223.031,382.002,221.736,383.297,220.138,383.297z"/>
							<g>
								<rect x="227.139" y="256.638" style="fill:#DCE8F4;" width="261.563" height="185.562"/>
								<g>
									<rect x="227.142" y="256.642" style="fill:#A6AFB8;" width="261.556" height="12.472"/>
									<g>
										<rect x="231.433" y="263.393" style="fill:#FC6047;" width="3.311" height="4.211"/>
										<rect x="235.734" y="260.46" style="fill:#FC6047;" width="3.311" height="7.144"/>
										<rect x="240.282" y="258.431" style="fill:#FC6047;" width="3.311" height="9.173"/>
									</g>
									<g>
										<path style="fill:#DCE8F4;" d="M467.917,259.185v0.609c0,0.483-0.392,0.875-0.876,0.875h-0.975
											c-0.483,0-0.875,0.392-0.875,0.875v2.664c0,0.483,0.392,0.875,0.875,0.875h0.975c0.484,0,0.876,0.392,0.876,0.875v0.609
											c0,0.483,0.392,0.875,0.875,0.875h13.626c0.484,0,0.875-0.392,0.875-0.875v-7.384c0-0.483-0.392-0.875-0.875-0.875
											h-13.626C468.309,258.31,467.917,258.702,467.917,259.185z"/>
										<path style="fill:#B7FC47;" d="M482.456,266.982h-2.435c-0.179,0-0.324-0.145-0.324-0.324v-7.573
											c0-0.179,0.145-0.324,0.324-0.324h2.435c0.179,0,0.324,0.145,0.324,0.324v7.573
											C482.78,266.837,482.635,266.982,482.456,266.982z"/>
										<path style="fill:#B7FC47;" d="M478.688,266.982h-2.435c-0.179,0-0.324-0.145-0.324-0.324v-7.573
											c0-0.179,0.145-0.324,0.324-0.324h2.435c0.179,0,0.324,0.145,0.324,0.324v7.573
											C479.012,266.837,478.867,266.982,478.688,266.982z"/>
										<path style="fill:#B7FC47;" d="M474.92,266.982h-2.435c-0.179,0-0.324-0.145-0.324-0.324v-7.573
											c0-0.179,0.145-0.324,0.324-0.324h2.435c0.179,0,0.324,0.145,0.324,0.324v7.573
											C475.244,266.837,475.099,266.982,474.92,266.982z"/>
									</g>
									<path style="fill:#DCE8F4;" d="M461.085,262.877c0,1.939-1.572,3.511-3.511,3.511c-1.939,0-3.511-1.572-3.511-3.511
										c0-1.939,1.572-3.511,3.511-3.511C459.513,259.366,461.085,260.938,461.085,262.877z"/>
								</g>
							</g>
							<rect x="243.679" y="283.12" style="fill:#C3CED9;" width="228.481" height="144.785"/>
							<rect x="243.679" y="283.12" style="fill:#A7B1BA;" width="228.481" height="12.484"/>
							<g>
								<rect x="317.956" y="302.074" style="fill:#E0EDFA;" width="149.58" height="5.938"/>
								<rect x="317.956" y="313.378" style="fill:#E0EDFA;" width="82.555" height="5.938"/>
								<rect x="317.956" y="324.682" style="fill:#E0EDFA;" width="44.417" height="5.938"/>
							</g>
							<g>
								<rect x="317.956" y="344.284" style="fill:#E0EDFA;" width="149.58" height="5.938"/>
								<rect x="317.956" y="355.588" style="fill:#E0EDFA;" width="82.555" height="5.938"/>
								<rect x="317.956" y="366.892" style="fill:#E0EDFA;" width="44.417" height="5.938"/>
							</g>
							<g>
								<rect x="317.956" y="385.504" style="fill:#E0EDFA;" width="149.58" height="5.938"/>
								<rect x="317.956" y="396.808" style="fill:#E0EDFA;" width="82.555" height="5.938"/>
								<rect x="317.956" y="408.112" style="fill:#E0EDFA;" width="44.417" height="5.938"/>
							</g>
							<g>
								<rect x="252.643" y="302.074" style="fill:#E0EDFA;" width="58.005" height="32.657"/>
								<polygon style="fill:#CEDAE6;" points="252.643,334.731 281.645,318.402 310.648,334.731 								"/>
								<polygon style="fill:#CEDAE6;" points="310.648,302.074 281.645,318.402 252.643,302.074 								"/>
							</g>
							<g>
								<rect x="252.643" y="344.094" style="fill:#E0EDFA;" width="58.005" height="32.656"/>
								<polygon style="fill:#CEDAE6;" points="252.643,376.75 281.645,360.422 310.648,376.75 								"/>
								<polygon style="fill:#CEDAE6;" points="310.648,344.094 281.645,360.422 252.643,344.094 								"/>
							</g>
							<g>
								<rect x="252.643" y="386.113" style="fill:#E0EDFA;" width="58.005" height="32.656"/>
								<polygon style="fill:#CEDAE6;" points="252.643,418.77 281.645,402.442 310.648,418.77 								"/>
								<polygon style="fill:#CEDAE6;" points="310.648,386.113 281.645,402.442 252.643,386.113 								"/>
							</g>
							<g style="opacity:0.44;">
								<polygon style="fill:#FFFFFF;" points="320.605,256.638 227.139,350.113 227.139,268.431 238.941,256.638 								"/>
								<polygon style="fill:#FFFFFF;" points="377.331,256.638 227.139,406.831 227.139,365.049 335.549,256.638 								"/>
							</g>
							<g style="opacity:0.44;">
								<polygon style="fill:#FFFFFF;" points="488.701,276.835 488.701,358.508 405,442.2 323.336,442.2 								"/>
								<polygon style="fill:#FFFFFF;" points="488.701,373.444 488.701,415.226 461.718,442.2 419.945,442.2 								"/>
							</g>
						</g>
						<g>
							<path style="fill:#EE8F23;" d="M271.268,251.558l77.547-60.088c4.902-3.798,11.752-3.798,16.654,0l77.547,60.088v100.7
								H271.268V251.558z"/>
							<g>
								<rect x="291.135" y="198.184" style="fill:#FAFAFA;" width="132.013" height="145.178"/>
								<rect x="299.082" y="206.923" style="fill:#DBDBDB;" width="116.119" height="4.426"/>
								<rect x="299.082" y="215.819" style="fill:#DBDBDB;" width="98.683" height="4.426"/>
								<rect x="299.082" y="224.715" style="fill:#DBDBDB;" width="82.671" height="4.426"/>
								<rect x="299.082" y="241.794" style="fill:#DBDBDB;" width="82.671" height="4.426"/>
								<rect x="299.082" y="250.334" style="fill:#DBDBDB;" width="61.321" height="4.426"/>
								<rect x="357.141" y="268.227" style="fill:#DBDBDB;" width="61.321" height="4.426"/>
								<rect x="368.587" y="276.943" style="fill:#DBDBDB;" width="49.875" height="4.426"/>
							</g>
							<g>
								<polygon style="fill:#FFAC42;" points="357.141,301.938 271.268,251.618 271.268,352.258 								"/>
								<polygon style="fill:#FFAC42;" points="357.141,301.938 443.015,251.618 443.015,352.258 								"/>
								<path style="fill:#FFBE6E;" d="M348.814,292.17l-77.547,60.088h171.747l-77.547-60.088
									C360.566,288.372,353.716,288.372,348.814,292.17z"/>
							</g>
							<g>
								
									<ellipse transform="matrix(0.2677 -0.9635 0.9635 0.2677 81.9943 611.1141)" style="fill:#FC6D5F;" cx="443.015" cy="251.618" rx="13.433" ry="13.433"/>
								<g>
									<path style="fill:#FFFFFF;" d="M439.989,244.807v12.954h-3.665v-10.123h-2.406v-2.831H439.989z"/>
									<path style="fill:#FFFFFF;" d="M450.806,250.636c0.87,0.74,1.305,1.728,1.305,2.961c0,0.802-0.207,1.539-0.62,2.211
										c-0.413,0.673-1.043,1.209-1.888,1.61c-0.845,0.401-1.891,0.602-3.137,0.602c-0.914,0-1.816-0.111-2.711-0.333
										c-0.895-0.222-1.663-0.536-2.304-0.944l1.314-2.757c0.518,0.346,1.089,0.611,1.712,0.796
										c0.622,0.185,1.249,0.277,1.879,0.277c0.629,0,1.131-0.12,1.508-0.361c0.376-0.241,0.564-0.577,0.564-1.009
										c0-0.431-0.184-0.759-0.555-0.981c-0.371-0.222-1.024-0.333-1.962-0.333h-3.515l0.647-7.569h8.254v2.831h-5.219
										l-0.167,1.888h0.87C448.594,249.526,449.936,249.896,450.806,250.636z"/>
								</g>
							</g>
						</g>
					</g>
				</g>
				<g>
					<g>
						<g>
							<path style="fill:#BCDFEB;" d="M221.636,132.26c2.258,0.09,4.282,0.719,6.073,1.889c1.791,1.169,3.17,2.77,4.136,4.801
								c0.712,1.498,1.087,2.898,1.123,4.197c0.036,1.299-0.225,2.424-0.784,3.374c-0.559,0.95-1.372,1.678-2.437,2.185
								c-0.883,0.42-1.727,0.596-2.534,0.531c-0.807-0.065-1.53-0.385-2.17-0.958c-0.127,1.837-1.131,3.202-3.012,4.097
								c-0.982,0.467-2.022,0.64-3.121,0.52c-1.098-0.121-2.128-0.535-3.086-1.242c-0.96-0.708-1.732-1.677-2.318-2.909
								c-0.586-1.232-0.855-2.441-0.807-3.628c0.048-1.186,0.374-2.24,0.978-3.16c0.604-0.92,1.405-1.617,2.404-2.092
								c1.465-0.697,2.848-0.773,4.148-0.227l-0.582-1.224l4.071-1.936l3.622,7.617c0.253,0.533,0.535,0.868,0.846,1.006
								c0.311,0.138,0.632,0.128,0.965-0.031c1.049-0.499,0.96-2.038-0.267-4.619c-0.752-1.581-1.792-2.812-3.119-3.692
								c-1.327-0.879-2.829-1.344-4.506-1.394c-1.677-0.049-3.398,0.346-5.163,1.185c-1.748,0.831-3.123,1.945-4.123,3.339
								c-1.001,1.395-1.561,2.932-1.68,4.611c-0.12,1.68,0.212,3.344,0.996,4.992c0.8,1.682,1.883,3.014,3.249,3.998
								c1.366,0.984,2.895,1.527,4.588,1.631c1.692,0.103,3.413-0.261,5.161-1.092c1.781-0.847,3.264-2.001,4.447-3.462l2.195,2.233
								c-0.575,0.722-1.34,1.443-2.294,2.162c-0.955,0.719-1.964,1.332-3.03,1.839c-2.415,1.148-4.779,1.66-7.093,1.536
								c-2.315-0.124-4.392-0.82-6.231-2.09c-1.839-1.269-3.276-2.994-4.314-5.175c-1.029-2.164-1.45-4.358-1.262-6.581
								c0.188-2.222,0.972-4.275,2.354-6.157c1.381-1.882,3.287-3.401,5.718-4.557C217.092,132.676,219.378,132.17,221.636,132.26z
								 M222.918,146.869c0.22-0.717,0.113-1.533-0.323-2.449c-0.427-0.899-0.989-1.489-1.684-1.771
								c-0.696-0.281-1.41-0.248-2.142,0.1c-0.733,0.349-1.205,0.88-1.417,1.593c-0.212,0.713-0.104,1.52,0.323,2.418
								c0.428,0.899,0.987,1.496,1.678,1.79c0.691,0.294,1.403,0.267,2.135-0.081C222.221,148.119,222.698,147.587,222.918,146.869z
								"/>
						</g>
					</g>
					<g>
						<g>
							<path style="fill:#BCDFEB;" d="M449.498,137.565l-1.286,4.165l3.696,0.68l-0.702,3.814l-4.169-0.767l-1.372,4.303
								l-4.022-0.74l1.372-4.303l-3.637-0.669l-1.372,4.303l-4.022-0.74l1.372-4.303l-3.726-0.686l0.702-3.814l4.199,0.773
								l1.286-4.165l-3.726-0.686l0.702-3.814l4.199,0.773l1.372-4.303l4.021,0.74l-1.372,4.303l3.637,0.669l1.372-4.303l4.022,0.74
								l-1.372,4.303l3.726,0.685l-0.702,3.815L449.498,137.565z M445.476,136.825l-3.637-0.669l-1.286,4.165l3.637,0.669
								L445.476,136.825z"/>
						</g>
					</g>
					<g>
						<path style="fill:#FFBE6E;" d="M256.684,394.904h-49.785c-15.11,0-27.359-12.249-27.359-27.359l0,0
							c0-15.11,12.249-27.359,27.359-27.359h22.426c15.11,0,27.359,12.249,27.359,27.359V394.904z"/>
						<path style="fill:#FAFAFA;" d="M218.112,346.859c-11.406,0-20.686,9.28-20.686,20.686c0,11.406,9.28,20.686,20.686,20.686
							c11.407,0,20.686-9.28,20.686-20.686C238.798,356.138,229.519,346.859,218.112,346.859z M200.095,367.545
							c0-1.386,0.172-2.73,0.47-4.027c0.945-0.434,2.679-1.142,5.12-1.781c-0.55,3.113-0.755,6.601-0.257,10.279
							c-1.639-0.428-3.335-0.95-5.076-1.562C200.197,369.505,200.095,368.538,200.095,367.545z M208.416,361.124
							c4.56-0.865,10.766-1.267,18.278,0.132c0.719,3.572,1.065,7.695,0.433,11.933c-4.772,0.825-11.213,1.105-18.961-0.531
							C207.413,368.464,207.702,364.517,208.416,361.124z M229.498,361.857c1.988,0.472,4.057,1.073,6.202,1.82
							c0.274,1.247,0.429,2.539,0.429,3.868c0,1.038-0.107,2.049-0.277,3.04c-0.963,0.455-2.999,1.311-5.969,2.034
							C230.325,368.824,230.071,365.147,229.498,361.857z M234.708,360.533c-2.004-0.636-3.943-1.155-5.808-1.562
							c-0.727-3.01-1.654-5.552-2.41-7.362C230.155,353.542,233.081,356.695,234.708,360.533z M222.91,350.197
							c0.453,0.877,1.959,3.958,3.116,8.221c-6.743-1.134-12.442-0.894-16.88-0.175c1.193-3.969,2.789-6.811,3.406-7.827
							c1.753-0.57,3.619-0.888,5.56-0.888C219.776,349.528,221.38,349.773,222.91,350.197z M208.628,352.255
							c-0.771,1.708-1.629,3.938-2.304,6.54c-1.852,0.426-3.403,0.912-4.627,1.362C203.176,356.884,205.603,354.138,208.628,352.255
							z M201.142,373.539c1.653,0.535,3.254,0.978,4.814,1.356c0.646,2.74,1.724,5.55,3.358,8.358
							C205.536,381.128,202.609,377.678,201.142,373.539z M213.673,384.986c-2.386-3.164-3.918-6.357-4.827-9.462
							c3.822,0.733,7.337,1.038,10.485,1.038c2.673,0,5.08-0.213,7.219-0.534c-0.789,3.064-2.156,6.13-4.323,9.041
							c-1.324,0.311-2.697,0.492-4.114,0.492C216.578,385.562,215.096,385.348,213.673,384.986z M226.405,383.523
							c1.473-2.635,2.436-5.339,3.006-8.02c2.301-0.502,4.167-1.101,5.549-1.632C233.388,378.043,230.323,381.481,226.405,383.523z"
							/>
					</g>
					<g>
						<g>
							<path style="fill:#FFBE6E;" d="M452.547,428.681h49.785c15.11,0,27.359-12.249,27.359-27.359v0
								c0-15.11-12.249-27.359-27.359-27.359h-22.426c-15.11,0-27.359,12.249-27.359,27.359V428.681z"/>
						</g>
						<path style="fill:none;stroke:#FAFAFA;stroke-width:3.8114;stroke-linejoin:round;stroke-miterlimit:10;" d="M511.606,393.461
							c0-7.739-12.308-14.394-20.486-7.713c-8.179-6.681-20.486-0.027-20.486,7.713c0,0-2.647,15.172,20.486,26.18
							C514.253,408.634,511.606,393.461,511.606,393.461z"/>
					</g>
					<path style="fill:#BCDFEB;" d="M436.206,67.384c-0.317-0.12-0.634-0.223-0.952-0.31c-0.087-0.313-0.189-0.627-0.309-0.941
						c-0.51-1.261-1.178-2.522-2.523-3.783c-1.345,1.261-2.013,2.522-2.523,3.783c-0.121,0.316-0.224,0.633-0.311,0.949
						c-0.316,0.087-0.633,0.19-0.949,0.311c-1.261,0.51-2.522,1.178-3.783,2.523c1.261,1.345,2.522,2.013,3.783,2.523
						c0.314,0.12,0.627,0.222,0.941,0.309c0.087,0.317,0.19,0.634,0.31,0.952c0.508,1.261,1.179,2.522,2.532,3.783
						c1.353-1.261,2.024-2.522,2.532-3.783c0.119-0.314,0.222-0.629,0.308-0.943c0.314-0.087,0.629-0.189,0.943-0.308
						c1.261-0.508,2.522-1.179,3.783-2.532C438.728,68.563,437.467,67.892,436.206,67.384z"/>
					<path style="fill:#BCDFEB;" d="M95.854,278.974c-0.317-0.12-0.634-0.223-0.952-0.31c-0.087-0.314-0.189-0.627-0.308-0.941
						c-0.51-1.261-1.178-2.522-2.523-3.783c-1.345,1.261-2.013,2.522-2.523,3.783c-0.121,0.316-0.224,0.633-0.311,0.949
						c-0.316,0.087-0.633,0.19-0.949,0.311c-1.261,0.51-2.522,1.178-3.783,2.523c1.261,1.345,2.522,2.013,3.783,2.523
						c0.313,0.12,0.627,0.222,0.941,0.309c0.087,0.317,0.19,0.634,0.31,0.952c0.508,1.261,1.179,2.522,2.532,3.783
						c1.353-1.261,2.024-2.522,2.532-3.783c0.119-0.314,0.222-0.629,0.308-0.943c0.314-0.086,0.629-0.189,0.943-0.308
						c1.261-0.508,2.522-1.179,3.783-2.532C98.376,280.154,97.115,279.483,95.854,278.974z"/>
					<path style="fill:#BCDFEB;" d="M462.286,217.713c-0.317-0.12-0.634-0.223-0.951-0.31c-0.087-0.314-0.189-0.627-0.309-0.941
						c-0.509-1.261-1.178-2.522-2.523-3.783c-1.345,1.261-2.013,2.522-2.523,3.783c-0.12,0.316-0.224,0.633-0.311,0.949
						c-0.316,0.087-0.633,0.19-0.949,0.311c-1.261,0.51-2.522,1.178-3.783,2.523c1.261,1.345,2.522,2.014,3.783,2.523
						c0.314,0.12,0.627,0.222,0.941,0.309c0.087,0.317,0.19,0.634,0.31,0.951c0.508,1.261,1.179,2.522,2.532,3.783
						c1.353-1.261,2.024-2.522,2.532-3.783c0.119-0.314,0.222-0.629,0.308-0.943c0.314-0.087,0.629-0.189,0.943-0.308
						c1.261-0.508,2.522-1.179,3.783-2.532C464.808,218.893,463.547,218.221,462.286,217.713z"/>
					<path style="fill:#DBF6FF;" d="M593.911,86.972c-0.159-0.06-0.318-0.112-0.477-0.155c-0.043-0.157-0.095-0.314-0.154-0.471
						c-0.255-0.632-0.591-1.264-1.265-1.896c-0.674,0.632-1.009,1.264-1.265,1.896c-0.06,0.159-0.112,0.317-0.156,0.476
						c-0.159,0.044-0.317,0.095-0.476,0.156c-0.632,0.255-1.264,0.59-1.896,1.265c0.632,0.674,1.264,1.009,1.896,1.264
						c0.157,0.06,0.314,0.111,0.471,0.155c0.044,0.159,0.095,0.318,0.155,0.477c0.255,0.632,0.591,1.264,1.269,1.896
						c0.678-0.632,1.014-1.264,1.269-1.896c0.06-0.158,0.111-0.315,0.154-0.473c0.158-0.043,0.315-0.095,0.473-0.154
						c0.632-0.255,1.264-0.591,1.896-1.269C595.175,87.563,594.543,87.227,593.911,86.972z"/>
					<path style="fill:#DBF6FF;" d="M632.865,199.552c-0.159-0.06-0.318-0.112-0.477-0.156c-0.043-0.157-0.095-0.314-0.154-0.471
						c-0.255-0.632-0.591-1.264-1.265-1.896c-0.674,0.632-1.009,1.264-1.264,1.896c-0.061,0.159-0.112,0.317-0.156,0.476
						c-0.159,0.044-0.317,0.096-0.476,0.156c-0.632,0.255-1.264,0.59-1.896,1.265c0.632,0.674,1.264,1.009,1.896,1.264
						c0.157,0.06,0.314,0.111,0.472,0.155c0.044,0.159,0.095,0.318,0.156,0.477c0.255,0.632,0.591,1.264,1.269,1.896
						c0.678-0.632,1.014-1.264,1.269-1.896c0.06-0.158,0.111-0.315,0.154-0.473c0.157-0.044,0.315-0.095,0.473-0.154
						c0.632-0.255,1.264-0.591,1.896-1.269C634.129,200.143,633.497,199.807,632.865,199.552z"/>
					<path style="fill:#DBF6FF;" d="M631.38,196.915c-0.159-0.06-0.318-0.112-0.477-0.156c-0.043-0.157-0.095-0.314-0.155-0.471
						c-0.256-0.632-0.591-1.264-1.265-1.896c-0.674,0.632-1.009,1.264-1.265,1.896c-0.06,0.159-0.112,0.317-0.156,0.476
						c-0.159,0.044-0.317,0.095-0.476,0.156c-0.632,0.255-1.264,0.59-1.896,1.264c0.632,0.674,1.264,1.009,1.896,1.264
						c0.157,0.06,0.314,0.111,0.471,0.155c0.044,0.159,0.095,0.318,0.156,0.477c0.255,0.632,0.591,1.264,1.269,1.896
						c0.678-0.632,1.014-1.264,1.269-1.896c0.06-0.158,0.111-0.315,0.155-0.473c0.157-0.043,0.315-0.095,0.473-0.154
						c0.632-0.255,1.264-0.591,1.896-1.269C632.644,197.506,632.012,197.169,631.38,196.915z"/>
					<path style="fill:#BCDFEB;" d="M174.74,231.316c-0.159-0.06-0.318-0.112-0.477-0.156c-0.044-0.157-0.095-0.314-0.155-0.471
						c-0.256-0.632-0.59-1.264-1.264-1.896c-0.674,0.632-1.009,1.264-1.265,1.896c-0.06,0.159-0.112,0.317-0.156,0.476
						c-0.159,0.044-0.317,0.095-0.476,0.156c-0.632,0.256-1.264,0.59-1.896,1.264c0.632,0.674,1.264,1.009,1.896,1.265
						c0.157,0.06,0.314,0.111,0.472,0.155c0.043,0.159,0.095,0.318,0.155,0.477c0.255,0.632,0.591,1.264,1.269,1.896
						c0.678-0.632,1.014-1.264,1.269-1.896c0.06-0.157,0.111-0.315,0.154-0.473c0.158-0.043,0.315-0.095,0.473-0.154
						c0.632-0.255,1.264-0.591,1.896-1.269C176.004,231.908,175.372,231.571,174.74,231.316z"/>
					<path style="fill:#BCDFEB;" d="M105.214,431.212c-0.159-0.06-0.318-0.112-0.477-0.156c-0.044-0.157-0.095-0.314-0.155-0.471
						c-0.255-0.632-0.59-1.264-1.264-1.896c-0.674,0.632-1.009,1.264-1.264,1.896c-0.06,0.159-0.112,0.317-0.156,0.476
						c-0.159,0.044-0.317,0.095-0.476,0.156c-0.632,0.255-1.264,0.591-1.896,1.265c0.632,0.674,1.264,1.009,1.896,1.264
						c0.157,0.06,0.314,0.111,0.471,0.154c0.044,0.159,0.095,0.318,0.156,0.477c0.255,0.632,0.591,1.264,1.269,1.896
						c0.678-0.632,1.014-1.264,1.269-1.896c0.06-0.158,0.111-0.315,0.154-0.473c0.158-0.043,0.315-0.094,0.473-0.154
						c0.632-0.255,1.264-0.591,1.896-1.269C106.478,431.803,105.845,431.467,105.214,431.212z"/>
					<path style="fill:#BCDFEB;" d="M374.275,130.981c-0.159-0.06-0.318-0.112-0.477-0.156c-0.043-0.157-0.095-0.314-0.155-0.471
						c-0.255-0.632-0.59-1.264-1.264-1.896c-0.674,0.632-1.009,1.264-1.264,1.896c-0.06,0.159-0.112,0.317-0.156,0.476
						c-0.159,0.044-0.317,0.095-0.476,0.156c-0.632,0.255-1.264,0.59-1.896,1.264c0.632,0.674,1.264,1.009,1.896,1.264
						c0.157,0.06,0.314,0.111,0.471,0.155c0.044,0.159,0.095,0.318,0.156,0.477c0.255,0.632,0.591,1.264,1.269,1.896
						c0.678-0.632,1.014-1.264,1.269-1.896c0.06-0.158,0.111-0.315,0.154-0.473c0.158-0.043,0.315-0.094,0.472-0.154
						c0.632-0.255,1.264-0.591,1.896-1.269C375.539,131.572,374.907,131.236,374.275,130.981z"/>
					<path style="fill:#BCDFEB;" d="M190.625,66.619c-0.159-0.06-0.318-0.112-0.477-0.156c-0.043-0.157-0.095-0.314-0.155-0.471
						c-0.256-0.632-0.591-1.264-1.265-1.896c-0.674,0.632-1.009,1.264-1.264,1.896c-0.06,0.159-0.112,0.317-0.156,0.476
						c-0.159,0.044-0.317,0.095-0.476,0.156c-0.632,0.255-1.264,0.59-1.896,1.264c0.632,0.674,1.264,1.009,1.896,1.264
						c0.157,0.06,0.314,0.111,0.472,0.155c0.044,0.159,0.095,0.318,0.156,0.477c0.255,0.632,0.591,1.264,1.269,1.896
						c0.678-0.632,1.014-1.264,1.269-1.896c0.06-0.158,0.111-0.315,0.154-0.473c0.158-0.043,0.315-0.095,0.473-0.154
						c0.632-0.255,1.264-0.591,1.896-1.269C191.889,67.21,191.258,66.874,190.625,66.619z"/>
					<path style="fill:#BCDFEB;" d="M583.08,237.108c-0.159-0.06-0.318-0.112-0.477-0.156c-0.043-0.157-0.095-0.314-0.155-0.471
						c-0.255-0.632-0.59-1.264-1.264-1.896c-0.674,0.632-1.009,1.264-1.265,1.896c-0.06,0.159-0.112,0.317-0.156,0.476
						c-0.159,0.044-0.317,0.095-0.476,0.156c-0.632,0.256-1.264,0.59-1.896,1.265c0.632,0.674,1.264,1.009,1.896,1.264
						c0.157,0.06,0.314,0.111,0.471,0.155c0.044,0.159,0.095,0.318,0.156,0.477c0.255,0.632,0.591,1.264,1.269,1.896
						c0.678-0.632,1.014-1.264,1.269-1.896c0.06-0.158,0.111-0.315,0.154-0.473c0.157-0.043,0.315-0.095,0.473-0.154
						c0.632-0.255,1.264-0.591,1.896-1.269C584.344,237.699,583.712,237.363,583.08,237.108z"/>
					<path style="fill:#DBF6FF;" d="M395.421,170.882c-0.159-0.06-0.318-0.112-0.477-0.156c-0.044-0.157-0.095-0.314-0.155-0.471
						c-0.255-0.632-0.59-1.264-1.264-1.896c-0.674,0.632-1.009,1.264-1.265,1.896c-0.06,0.159-0.112,0.317-0.156,0.476
						c-0.158,0.044-0.317,0.095-0.476,0.156c-0.632,0.255-1.264,0.59-1.896,1.264c0.632,0.674,1.264,1.009,1.896,1.265
						c0.157,0.06,0.314,0.111,0.471,0.155c0.044,0.159,0.095,0.318,0.156,0.477c0.255,0.632,0.591,1.264,1.269,1.896
						c0.678-0.632,1.014-1.264,1.269-1.896c0.06-0.158,0.111-0.315,0.154-0.473c0.158-0.043,0.315-0.095,0.473-0.154
						c0.632-0.255,1.264-0.591,1.896-1.269C396.685,171.473,396.053,171.137,395.421,170.882z"/>
					<path style="fill:#BCDFEB;" d="M323.93,95.849c-0.279-0.106-0.558-0.196-0.837-0.273c-0.076-0.276-0.166-0.551-0.271-0.827
						c-0.448-1.109-1.036-2.217-2.218-3.326c-1.182,1.109-1.77,2.217-2.218,3.326c-0.106,0.278-0.197,0.556-0.274,0.834
						c-0.278,0.077-0.556,0.167-0.834,0.273c-1.108,0.448-2.217,1.036-3.326,2.218c1.109,1.182,2.217,1.77,3.326,2.218
						c0.276,0.105,0.551,0.195,0.827,0.271c0.077,0.279,0.167,0.558,0.273,0.836c0.447,1.109,1.037,2.217,2.226,3.326
						c1.189-1.108,1.779-2.217,2.226-3.326c0.105-0.276,0.195-0.553,0.271-0.829c0.276-0.076,0.553-0.166,0.829-0.271
						c1.108-0.447,2.217-1.037,3.326-2.226C326.147,96.886,325.039,96.296,323.93,95.849z"/>
					<path style="fill:#BCDFEB;" d="M154.161,176.588c-0.279-0.106-0.558-0.196-0.837-0.273c-0.076-0.276-0.166-0.551-0.271-0.827
						c-0.448-1.109-1.036-2.217-2.218-3.326c-1.182,1.108-1.77,2.217-2.218,3.326c-0.106,0.278-0.197,0.556-0.273,0.834
						c-0.278,0.077-0.556,0.167-0.834,0.273c-1.109,0.448-2.217,1.036-3.326,2.218c1.108,1.182,2.217,1.77,3.326,2.218
						c0.276,0.105,0.551,0.195,0.827,0.271c0.076,0.279,0.167,0.558,0.273,0.836c0.447,1.109,1.037,2.217,2.226,3.326
						c1.189-1.109,1.779-2.217,2.226-3.326c0.105-0.276,0.195-0.553,0.271-0.829c0.276-0.076,0.553-0.166,0.829-0.271
						c1.109-0.447,2.217-1.037,3.326-2.226C156.378,177.624,155.269,177.035,154.161,176.588z"/>
					<path style="fill:#DBF6FF;" d="M512.975,149.727c-0.279-0.106-0.558-0.196-0.836-0.273c-0.076-0.276-0.166-0.551-0.271-0.827
						c-0.448-1.108-1.036-2.217-2.218-3.325c-1.182,1.108-1.77,2.217-2.218,3.325c-0.106,0.278-0.197,0.556-0.273,0.834
						c-0.278,0.077-0.556,0.167-0.834,0.273c-1.109,0.448-2.217,1.036-3.326,2.218c1.109,1.182,2.217,1.77,3.326,2.218
						c0.276,0.105,0.551,0.195,0.827,0.271c0.077,0.279,0.167,0.558,0.273,0.837c0.447,1.108,1.037,2.217,2.226,3.325
						c1.189-1.108,1.779-2.217,2.226-3.325c0.105-0.276,0.195-0.553,0.271-0.829c0.276-0.076,0.553-0.166,0.829-0.271
						c1.109-0.447,2.217-1.037,3.326-2.226C515.192,150.764,514.084,150.174,512.975,149.727z"/>
					<path style="fill:#DBF6FF;" d="M679.163,112.371c-0.279-0.106-0.558-0.196-0.837-0.273c-0.076-0.276-0.166-0.551-0.271-0.827
						c-0.448-1.108-1.036-2.217-2.218-3.326c-1.182,1.108-1.77,2.217-2.218,3.326c-0.106,0.278-0.197,0.556-0.273,0.834
						c-0.278,0.077-0.556,0.167-0.834,0.273c-1.109,0.448-2.217,1.036-3.326,2.218c1.109,1.182,2.217,1.77,3.326,2.218
						c0.276,0.105,0.551,0.195,0.827,0.271c0.076,0.279,0.167,0.558,0.273,0.837c0.447,1.108,1.037,2.217,2.226,3.325
						c1.189-1.108,1.779-2.217,2.226-3.325c0.105-0.276,0.195-0.553,0.271-0.829c0.276-0.076,0.553-0.166,0.829-0.271
						c1.108-0.447,2.217-1.037,3.325-2.226C681.38,113.408,680.271,112.818,679.163,112.371z"/>
					<path style="fill:#DBF6FF;" d="M504.802,61.039c-0.279-0.106-0.558-0.196-0.836-0.273c-0.076-0.276-0.166-0.551-0.271-0.827
						c-0.448-1.109-1.036-2.217-2.218-3.326c-1.182,1.109-1.77,2.217-2.218,3.326c-0.106,0.278-0.197,0.556-0.273,0.834
						c-0.278,0.077-0.556,0.167-0.835,0.273c-1.108,0.448-2.217,1.036-3.325,2.218c1.109,1.182,2.217,1.77,3.325,2.218
						c0.276,0.105,0.551,0.195,0.827,0.271c0.077,0.279,0.167,0.558,0.273,0.837c0.447,1.108,1.037,2.217,2.226,3.325
						c1.189-1.108,1.779-2.217,2.226-3.325c0.105-0.276,0.195-0.553,0.271-0.829c0.276-0.076,0.553-0.166,0.829-0.271
						c1.109-0.447,2.217-1.037,3.326-2.226C507.019,62.076,505.91,61.486,504.802,61.039z"/>
				</g>
			</g>
		</g>
	</g>
</g>
<g id="DESIGNED_BY_FREEPIK">
	<g>
		<g id="XMLID_319_">
			<g id="XMLID_338_">
				<path id="XMLID_346_" style="fill:#1D262D;" d="M385.104,467.621c-0.432,0.443-0.803,0.931-1.108,1.453l-0.465-0.241
					c-0.067-0.298-0.349-0.503-0.659-0.466c-0.331,0.039-0.568,0.339-0.529,0.67c0.039,0.331,0.339,0.568,0.67,0.529
					c0.066-0.008,0.127-0.026,0.184-0.052l0.451,0.234c-0.251,0.554-0.433,1.139-0.539,1.744l0.746,0.132
					c0.23-1.306,0.85-2.507,1.792-3.472L385.104,467.621z"/>
				<path id="XMLID_345_" style="fill:#1D262D;" d="M390.592,465.319c-0.171,0-0.341,0.006-0.51,0.017l-0.074-0.626
					c0.188-0.149,0.296-0.389,0.266-0.645c-0.046-0.393-0.402-0.674-0.795-0.628c-0.393,0.046-0.674,0.402-0.628,0.795
					c0.03,0.254,0.189,0.461,0.404,0.564l0.074,0.624c-0.714,0.116-1.403,0.332-2.06,0.646l0.327,0.684
					c0.934-0.447,1.942-0.673,2.995-0.673c0.496,0,0.993,0.053,1.475,0.158l0.161-0.741
					C391.692,465.378,391.142,465.319,390.592,465.319z"/>
				<path id="XMLID_344_" style="fill:#1D262D;" d="M397.194,467.866c0.331-0.04,0.566-0.341,0.526-0.672
					c-0.04-0.331-0.341-0.566-0.672-0.526c-0.309,0.038-0.535,0.304-0.53,0.609l-0.416,0.363c-0.418-0.43-0.889-0.813-1.408-1.139
					l-0.404,0.641c1.134,0.715,2.021,1.726,2.563,2.925l0.69-0.313c-0.251-0.554-0.567-1.072-0.942-1.545l0.402-0.351
					C397.065,467.871,397.129,467.875,397.194,467.866z"/>
				<path id="XMLID_343_" style="fill:#1D262D;" d="M390.044,475.528c-0.386,0.023-0.775,0.035-1.157,0.035
					c-0.88,0-1.733-0.061-2.478-0.179c-0.39-0.062-0.846-0.155-1.27-0.292c1.046,1.861,3.069,3.125,5.388,3.125
					c2.855,0,5.262-1.916,5.95-4.504c-0.682,0.449-1.505,0.825-2.459,1.123C392.839,475.203,391.463,475.442,390.044,475.528z"/>
				<path id="XMLID_339_" style="fill:#1D262D;" d="M390.592,466.835c-3.352,0-6.08,2.666-6.08,5.944
					c0,0.426,0.046,0.849,0.137,1.261c0.673,0.483,2.706,0.89,5.348,0.731c2.879-0.173,5.297-0.957,6.672-2.158
					c-0.006-0.195-0.021-0.39-0.045-0.582C396.244,469.069,393.65,466.835,390.592,466.835z M388.432,473.35
					c-1.02,0-1.85-0.83-1.85-1.85c0-1.02,0.83-1.85,1.85-1.85c1.02,0,1.85,0.83,1.85,1.85
					C390.282,472.52,389.452,473.35,388.432,473.35z M393.17,472.442c-0.75,0-1.36-0.61-1.36-1.36s0.61-1.361,1.36-1.361
					c0.75,0,1.361,0.61,1.361,1.361S393.92,472.442,393.17,472.442z"/>
			</g>
			<path id="XMLID_336_" style="fill:#1D262D;" d="M406.595,468.703c-0.295-0.116-0.805-0.309-1.382-0.237
				c-0.551,0.068-0.844,0.34-0.844,1.007v0.866h2.228v1.717h-2.228v5.455h-1.932v-5.455h-1.34v-1.717h1.34v-0.888
				c0-1.68,0.896-2.783,2.568-2.783c0.643,0,1.157,0.122,1.59,0.308L406.595,468.703z"/>
			<path id="XMLID_334_" style="fill:#1D262D;" d="M411.298,472.034c-0.177-0.03-0.358-0.046-0.526-0.046
				c-0.895,0-1.51,0.548-1.51,1.613v3.908h-1.932v-7.172h1.873v0.785c0.451-0.674,1.14-0.977,2.021-0.977
				c0.414,0,0.848,0.128,1.094,0.337L411.298,472.034z"/>
			<path id="XMLID_331_" style="fill:#1D262D;" d="M418.965,473.913c0,0.222-0.015,0.489-0.037,0.651h-5.085
				c0.207,1.036,0.933,1.488,1.843,1.488c0.622,0,1.295-0.252,1.813-0.688l1.133,1.243c-0.814,0.748-1.85,1.088-3.057,1.088
				c-2.198,0-3.723-1.495-3.723-3.753c0-2.257,1.48-3.797,3.627-3.797C417.544,470.145,418.958,471.677,418.965,473.913z
				 M413.851,473.246h3.175c-0.177-0.918-0.733-1.436-1.562-1.436C414.554,471.811,414.021,472.358,413.851,473.246z"/>
			<path id="XMLID_328_" style="fill:#1D262D;" d="M426.618,473.913c0,0.222-0.015,0.489-0.037,0.651h-5.085
				c0.207,1.036,0.932,1.488,1.843,1.488c0.622,0,1.295-0.252,1.814-0.688l1.132,1.243c-0.814,0.748-1.85,1.088-3.057,1.088
				c-2.198,0-3.723-1.495-3.723-3.753c0-2.257,1.48-3.797,3.627-3.797C425.197,470.145,426.611,471.677,426.618,473.913z
				 M421.504,473.246h3.175c-0.178-0.918-0.733-1.436-1.562-1.436C422.207,471.811,421.674,472.358,421.504,473.246z"/>
			<path id="XMLID_325_" style="fill:#1D262D;" d="M434.964,473.92c0,2.154-1.495,3.775-3.471,3.775
				c-0.962,0-1.643-0.378-2.109-0.933v3.708h-1.924v-10.133h1.887v0.792c0.466-0.585,1.155-0.984,2.139-0.984
				C433.469,470.145,434.964,471.766,434.964,473.92z M429.287,473.92c0,1.132,0.747,1.976,1.843,1.976
				c1.14,0,1.85-0.881,1.85-1.976c0-1.095-0.711-1.976-1.85-1.976C430.035,471.944,429.287,472.788,429.287,473.92z"/>
			<path id="XMLID_322_" style="fill:#1D262D;" d="M438.067,467.991c0,0.696-0.54,1.229-1.236,1.229
				c-0.696,0-1.229-0.533-1.229-1.229c0-0.696,0.533-1.243,1.229-1.243C437.527,466.748,438.067,467.296,438.067,467.991z
				 M437.809,477.51h-1.932v-7.172h1.932V477.51z"/>
			<path id="XMLID_320_" style="fill:#1D262D;" d="M441.032,472.891l2.702-2.554h2.368l-3.479,3.375l3.501,3.797h-2.376
				l-2.716-2.901v2.901H439.1v-10.658h1.932V472.891z"/>
		</g>
		<g>
			<path style="fill:#1D262D;" d="M309.412,477.445v-1.055c-0.527,0.718-1.391,1.23-2.387,1.23c-1.846,0-3.149-1.406-3.149-3.706
				c0-2.256,1.289-3.721,3.149-3.721c0.952,0,1.816,0.469,2.387,1.245v-3.765h1.099v9.77H309.412z M309.412,475.526v-3.208
				c-0.395-0.615-1.245-1.143-2.124-1.143c-1.421,0-2.27,1.172-2.27,2.739c0,1.567,0.85,2.724,2.27,2.724
				C308.168,476.639,309.017,476.141,309.412,475.526z"/>
			<path style="fill:#1D262D;" d="M311.932,473.9c0-2.051,1.465-3.706,3.486-3.706c2.139,0,3.398,1.67,3.398,3.794v0.279h-5.727
				c0.088,1.333,1.026,2.446,2.549,2.446c0.806,0,1.626-0.322,2.182-0.893l0.527,0.718c-0.703,0.703-1.655,1.084-2.812,1.084
				C313.44,477.621,311.932,476.112,311.932,473.9z M315.404,471.102c-1.509,0-2.256,1.274-2.315,2.358h4.643
				C317.718,472.406,317.015,471.102,315.404,471.102z"/>
			<path style="fill:#1D262D;" d="M319.607,476.507l0.571-0.791c0.469,0.542,1.362,1.011,2.329,1.011c1.084,0,1.67-0.513,1.67-1.216
				c0-1.714-4.38-0.659-4.38-3.281c0-1.098,0.952-2.036,2.636-2.036c1.201,0,2.051,0.454,2.622,1.026l-0.513,0.762
				c-0.424-0.513-1.201-0.894-2.109-0.894c-0.967,0-1.567,0.483-1.567,1.113c0,1.552,4.38,0.527,4.38,3.281
				c0,1.187-0.952,2.139-2.783,2.139C321.306,477.621,320.325,477.269,319.607,476.507z"/>
			<path style="fill:#1D262D;" d="M326.477,468.627c0-0.41,0.337-0.747,0.732-0.747c0.41,0,0.747,0.337,0.747,0.747
				c0,0.41-0.337,0.732-0.747,0.732C326.814,469.359,326.477,469.037,326.477,468.627z M326.667,477.445v-7.075h1.099v7.075H326.667
				z"/>
			<path style="fill:#1D262D;" d="M329.582,479.261l0.556-0.82c0.586,0.703,1.289,0.967,2.3,0.967c1.172,0,2.27-0.571,2.27-2.124
				v-1.011c-0.513,0.718-1.377,1.26-2.373,1.26c-1.845,0-3.149-1.377-3.149-3.662c0-2.27,1.289-3.677,3.149-3.677
				c0.952,0,1.802,0.469,2.373,1.245v-1.069h1.099v6.87c0,2.344-1.641,3.076-3.369,3.076
				C331.237,480.316,330.417,480.081,329.582,479.261z M334.709,475.409v-3.091c-0.381-0.615-1.23-1.143-2.109-1.143
				c-1.421,0-2.27,1.128-2.27,2.695c0,1.553,0.849,2.695,2.27,2.695C333.478,476.566,334.328,476.024,334.709,475.409z"/>
			<path style="fill:#1D262D;" d="M342.413,477.445v-4.629c0-1.245-0.63-1.64-1.582-1.64c-0.865,0-1.685,0.527-2.095,1.099v5.17
				h-1.099v-7.075h1.099v1.025c0.498-0.586,1.465-1.201,2.519-1.201c1.48,0,2.256,0.747,2.256,2.285v4.966H342.413z"/>
			<path style="fill:#1D262D;" d="M344.932,473.9c0-2.051,1.465-3.706,3.486-3.706c2.138,0,3.398,1.67,3.398,3.794v0.279h-5.727
				c0.088,1.333,1.025,2.446,2.549,2.446c0.806,0,1.626-0.322,2.183-0.893l0.527,0.718c-0.703,0.703-1.655,1.084-2.812,1.084
				C346.441,477.621,344.932,476.112,344.932,473.9z M348.404,471.102c-1.509,0-2.256,1.274-2.314,2.358h4.643
				C350.718,472.406,350.015,471.102,348.404,471.102z"/>
			<path style="fill:#1D262D;" d="M358.35,477.445v-1.055c-0.527,0.718-1.392,1.23-2.388,1.23c-1.846,0-3.149-1.406-3.149-3.706
				c0-2.256,1.289-3.721,3.149-3.721c0.952,0,1.817,0.469,2.388,1.245v-3.765h1.098v9.77H358.35z M358.35,475.526v-3.208
				c-0.396-0.615-1.245-1.143-2.124-1.143c-1.421,0-2.27,1.172-2.27,2.739c0,1.567,0.849,2.724,2.27,2.724
				C357.105,476.639,357.954,476.141,358.35,475.526z"/>
			<path style="fill:#1D262D;" d="M364.692,477.445v-9.77h1.099v3.765c0.572-0.776,1.421-1.245,2.388-1.245
				c1.845,0,3.149,1.465,3.149,3.721c0,2.299-1.304,3.706-3.149,3.706c-0.996,0-1.86-0.513-2.388-1.23v1.055H364.692z
				 M367.9,476.639c1.436,0,2.286-1.157,2.286-2.724c0-1.568-0.85-2.739-2.286-2.739c-0.864,0-1.728,0.527-2.109,1.143v3.208
				C366.171,476.141,367.036,476.639,367.9,476.639z"/>
			<path style="fill:#1D262D;" d="M372.529,479.217c0.161,0.073,0.425,0.117,0.601,0.117c0.483,0,0.806-0.161,1.055-0.747
				l0.469-1.069l-2.959-7.148h1.187l2.358,5.801l2.344-5.801h1.201l-3.545,8.51c-0.425,1.025-1.143,1.421-2.08,1.435
				c-0.234,0-0.601-0.044-0.806-0.103L372.529,479.217z"/>
		</g>
	</g>
</g>
</svg>
